<svg width="44" height="6" viewBox="0 0 44 6" fill="none" xmlns="http://www.w3.org/2000/svg">
<path d="M1 2.5C0.723858 2.5 0.5 2.72386 0.5 3C0.5 3.27614 0.723858 3.5 1 3.5L1 2.5ZM38.3333 3C38.3333 4.47276 39.5272 5.66667 41 5.66667C42.4728 5.66667 43.6667 4.47276 43.6667 3C43.6667 1.52724 42.4728 0.333333 41 0.333333C39.5272 0.333333 38.3333 1.52724 38.3333 3ZM3.5 3.5C3.77614 3.5 4 3.27614 4 3C4 2.72386 3.77614 2.5 3.5 2.5V3.5ZM8.5 2.5C8.22386 2.5 8 2.72386 8 3C8 3.27614 8.22386 3.5 8.5 3.5V2.5ZM13.5 3.5C13.7761 3.5 14 3.27614 14 3C14 2.72386 13.7761 2.5 13.5 2.5V3.5ZM18.5 2.5C18.2239 2.5 18 2.72386 18 3C18 3.27614 18.2239 3.5 18.5 3.5V2.5ZM23.5 3.5C23.7761 3.5 24 3.27614 24 3C24 2.72386 23.7761 2.5 23.5 2.5V3.5ZM28.5 2.5C28.2239 2.5 28 2.72386 28 3C28 3.27614 28.2239 3.5 28.5 3.5V2.5ZM33.5 3.5C33.7761 3.5 34 3.27614 34 3C34 2.72386 33.7761 2.5 33.5 2.5V3.5ZM38.5 2.5C38.2239 2.5 38 2.72386 38 3C38 3.27614 38.2239 3.5 38.5 3.5V2.5ZM1 3.5L3.5 3.5V2.5L1 2.5L1 3.5ZM8.5 3.5L13.5 3.5V2.5L8.5 2.5V3.5ZM18.5 3.5L23.5 3.5V2.5L18.5 2.5V3.5ZM28.5 3.5L33.5 3.5V2.5L28.5 2.5V3.5ZM38.5 3.5H41V2.5H38.5V3.5Z" fill="white"/>
</svg>
