<svg width="73" height="6" viewBox="0 0 73 6" fill="none" xmlns="http://www.w3.org/2000/svg">
<path d="M1 2.5C0.723858 2.5 0.5 2.72386 0.5 3C0.5 3.27614 0.723858 3.5 1 3.5L1 2.5ZM67.3333 3C67.3333 4.47276 68.5272 5.66667 70 5.66667C71.4728 5.66667 72.6667 4.47276 72.6667 3C72.6667 1.52724 71.4728 0.333333 70 0.333333C68.5272 0.333333 67.3333 1.52724 67.3333 3ZM3.46429 3.5C3.74043 3.5 3.96429 3.27614 3.96429 3C3.96429 2.72386 3.74043 2.5 3.46429 2.5V3.5ZM8.39286 2.5C8.11671 2.5 7.89286 2.72386 7.89286 3C7.89286 3.27614 8.11671 3.5 8.39286 3.5V2.5ZM13.3214 3.5C13.5976 3.5 13.8214 3.27614 13.8214 3C13.8214 2.72386 13.5976 2.5 13.3214 2.5V3.5ZM18.25 2.5C17.9739 2.5 17.75 2.72386 17.75 3C17.75 3.27614 17.9739 3.5 18.25 3.5V2.5ZM23.1786 3.5C23.4547 3.5 23.6786 3.27614 23.6786 3C23.6786 2.72386 23.4547 2.5 23.1786 2.5V3.5ZM28.1071 2.5C27.831 2.5 27.6071 2.72386 27.6071 3C27.6071 3.27614 27.831 3.5 28.1071 3.5V2.5ZM33.0357 3.5C33.3119 3.5 33.5357 3.27614 33.5357 3C33.5357 2.72386 33.3119 2.5 33.0357 2.5V3.5ZM37.9643 2.5C37.6881 2.5 37.4643 2.72386 37.4643 3C37.4643 3.27614 37.6881 3.5 37.9643 3.5V2.5ZM42.8929 3.5C43.169 3.5 43.3929 3.27614 43.3929 3C43.3929 2.72386 43.169 2.5 42.8929 2.5V3.5ZM47.8214 2.5C47.5453 2.5 47.3214 2.72386 47.3214 3C47.3214 3.27614 47.5453 3.5 47.8214 3.5V2.5ZM52.75 3.5C53.0261 3.5 53.25 3.27614 53.25 3C53.25 2.72386 53.0261 2.5 52.75 2.5V3.5ZM57.6786 2.5C57.4024 2.5 57.1786 2.72386 57.1786 3C57.1786 3.27614 57.4024 3.5 57.6786 3.5V2.5ZM62.6071 3.5C62.8833 3.5 63.1071 3.27614 63.1071 3C63.1071 2.72386 62.8833 2.5 62.6071 2.5V3.5ZM67.5357 2.5C67.2596 2.5 67.0357 2.72386 67.0357 3C67.0357 3.27614 67.2596 3.5 67.5357 3.5V2.5ZM1 3.5L3.46429 3.5V2.5L1 2.5L1 3.5ZM8.39286 3.5L13.3214 3.5V2.5L8.39286 2.5V3.5ZM18.25 3.5L23.1786 3.5V2.5L18.25 2.5V3.5ZM28.1071 3.5L33.0357 3.5V2.5L28.1071 2.5V3.5ZM37.9643 3.5L42.8929 3.5V2.5L37.9643 2.5V3.5ZM47.8214 3.5L52.75 3.5V2.5L47.8214 2.5V3.5ZM57.6786 3.5L62.6071 3.5V2.5L57.6786 2.5V3.5ZM67.5357 3.5L70 3.5V2.5L67.5357 2.5V3.5Z" fill="white"/>
</svg>
