<svg width="40" height="40" viewBox="0 0 40 40" fill="none" xmlns="http://www.w3.org/2000/svg">
<rect width="40" height="40" rx="5" fill="#FCD318"/>
<g filter="url(#filter0_d_34_57)">
<path d="M28.3333 17.1735V23.9585C28.3333 25.4027 27.2029 26.5828 25.7786 26.6626L25.625 26.6668H14.375C12.9308 26.6668 11.7506 25.5364 11.6709 24.1122L11.6666 23.9585V17.1735L19.71 21.3872C19.8916 21.4822 20.1083 21.4822 20.29 21.3872L28.3333 17.1735ZM14.375 13.3335H25.625C27.0289 13.3335 28.1834 14.4018 28.3198 15.7698L20 20.1279L11.6801 15.7698C11.8115 14.4524 12.8869 13.413 14.22 13.3379L14.375 13.3335Z" fill="white"/>
</g>
<defs>
<filter id="filter0_d_34_57" x="6.66663" y="12.3335" width="26.6666" height="23.3335" filterUnits="userSpaceOnUse" color-interpolation-filters="sRGB">
<feFlood flood-opacity="0" result="BackgroundImageFix"/>
<feColorMatrix in="SourceAlpha" type="matrix" values="0 0 0 0 0 0 0 0 0 0 0 0 0 0 0 0 0 0 127 0" result="hardAlpha"/>
<feOffset dy="4"/>
<feGaussianBlur stdDeviation="2.5"/>
<feComposite in2="hardAlpha" operator="out"/>
<feColorMatrix type="matrix" values="0 0 0 0 0 0 0 0 0 0 0 0 0 0 0 0 0 0 0.1 0"/>
<feBlend mode="normal" in2="BackgroundImageFix" result="effect1_dropShadow_34_57"/>
<feBlend mode="normal" in="SourceGraphic" in2="effect1_dropShadow_34_57" result="shape"/>
</filter>
</defs>
</svg>
