<svg width="20" height="25" viewBox="0 0 20 25" fill="none" xmlns="http://www.w3.org/2000/svg">
<path d="M17.0711 17.6776L10 25L2.92889 17.6776C1.53038 16.2294 0.577985 14.3843 0.192143 12.3755C-0.193699 10.3668 0.00434095 8.28468 0.76122 6.39249C1.5181 4.50031 2.79982 2.88303 4.44431 1.74518C6.0888 0.607327 8.02219 0 10 0C11.9778 0 13.9112 0.607327 15.5557 1.74518C17.2002 2.88303 18.4819 4.50031 19.2388 6.39249C19.9957 8.28468 20.1937 10.3668 19.8079 12.3755C19.422 14.3843 18.4696 16.2294 17.0711 17.6776ZM10 12.6564C10.5894 12.6564 11.1546 12.414 11.5713 11.9824C11.9881 11.5509 12.2222 10.9656 12.2222 10.3552C12.2222 9.74494 11.9881 9.15962 11.5713 8.72807C11.1546 8.29651 10.5894 8.05406 10 8.05406C9.41063 8.05406 8.8454 8.29651 8.42865 8.72807C8.0119 9.15962 7.77778 9.74494 7.77778 10.3552C7.77778 10.9656 8.0119 11.5509 8.42865 11.9824C8.8454 12.414 9.41063 12.6564 10 12.6564Z" fill="#2D5180"/>
</svg>
