<svg width="40" height="40" viewBox="0 0 40 40" fill="none" xmlns="http://www.w3.org/2000/svg">
<rect width="40" height="40" rx="5" fill="#FCD318"/>
<g filter="url(#filter0_d_34_70)">
<path d="M20 10C15.5821 10 12 13.3582 12 17.5C12 20.5238 13.1238 21.3684 19.1792 29.5977C19.5763 30.1355 20.4254 30.1355 20.8225 29.5977C26.875 21.3672 28 20.5234 28 17.5C28 13.3582 24.4167 10 20 10ZM20 20.5898C18.1613 20.5898 16.6667 19.1883 16.6667 17.4648C16.6667 15.7414 18.1625 14.3398 20 14.3398C21.8375 14.3398 23.3333 15.7414 23.3333 17.4648C23.3333 19.1883 21.8375 20.5898 20 20.5898Z" fill="white"/>
</g>
<defs>
<filter id="filter0_d_34_70" x="7" y="9" width="26" height="30.001" filterUnits="userSpaceOnUse" color-interpolation-filters="sRGB">
<feFlood flood-opacity="0" result="BackgroundImageFix"/>
<feColorMatrix in="SourceAlpha" type="matrix" values="0 0 0 0 0 0 0 0 0 0 0 0 0 0 0 0 0 0 127 0" result="hardAlpha"/>
<feOffset dy="4"/>
<feGaussianBlur stdDeviation="2.5"/>
<feComposite in2="hardAlpha" operator="out"/>
<feColorMatrix type="matrix" values="0 0 0 0 0 0 0 0 0 0 0 0 0 0 0 0 0 0 0.1 0"/>
<feBlend mode="normal" in2="BackgroundImageFix" result="effect1_dropShadow_34_70"/>
<feBlend mode="normal" in="SourceGraphic" in2="effect1_dropShadow_34_70" result="shape"/>
</filter>
</defs>
</svg>
