<svg width="40" height="40" viewBox="0 0 40 40" fill="none" xmlns="http://www.w3.org/2000/svg">
<rect width="40" height="40" rx="5" fill="#FCD318"/>
<g filter="url(#filter0_d_34_62)">
<path d="M27.3437 22.3749L23.6797 20.8124C23.4906 20.7277 23.2831 20.6926 23.0767 20.7103C22.8703 20.7281 22.6718 20.7982 22.5 20.914L20.5391 22.2187C19.3439 21.6382 18.3763 20.6761 17.7891 19.4843L19.0859 17.4999C19.201 17.328 19.2712 17.13 19.2903 16.924C19.3094 16.718 19.2768 16.5104 19.1953 16.3203L17.625 12.6562C17.5154 12.4088 17.3299 12.2027 17.0953 12.0679C16.8607 11.933 16.5893 11.8764 16.3203 11.9062C15.2653 12.0444 14.2964 12.561 13.5937 13.36C12.891 14.159 12.5023 15.1859 12.5 16.2499C12.5 22.4531 17.5469 27.4999 23.75 27.4999C24.814 27.4976 25.841 27.1089 26.64 26.4063C27.4389 25.7036 27.9555 24.7346 28.0937 23.6796C28.1236 23.4107 28.0669 23.1392 27.9321 22.9046C27.7972 22.6701 27.5912 22.4845 27.3437 22.3749Z" fill="white"/>
<path d="M22.2968 13.7267C23.2482 13.9866 24.1153 14.4901 24.8126 15.1875C25.51 15.8848 26.0135 16.7519 26.2734 17.7033C26.3079 17.8369 26.3856 17.9553 26.4944 18.04C26.6032 18.1248 26.737 18.1712 26.8749 18.172C26.9305 18.1719 26.9857 18.164 27.039 18.1486C27.1185 18.1278 27.193 18.0914 27.2582 18.0414C27.3233 17.9915 27.3779 17.929 27.4187 17.8577C27.4594 17.7864 27.4855 17.7077 27.4954 17.6262C27.5054 17.5447 27.4989 17.462 27.4765 17.383C27.164 16.2179 26.5505 15.1555 25.6975 14.3026C24.8446 13.4496 23.7822 12.8361 22.6171 12.5236C22.5356 12.4939 22.4488 12.4815 22.3622 12.4872C22.2756 12.4929 22.1912 12.5165 22.1142 12.5566C22.0373 12.5968 21.9696 12.6525 21.9153 12.7202C21.8611 12.7879 21.8216 12.8662 21.7992 12.95C21.7769 13.0339 21.7723 13.1215 21.7857 13.2072C21.799 13.2929 21.8301 13.3749 21.8769 13.448C21.9237 13.5211 21.9853 13.5836 22.0575 13.6316C22.1298 13.6795 22.2113 13.712 22.2968 13.7267Z" fill="white"/>
<path d="M21.6484 16.1408C22.1772 16.2855 22.6592 16.5655 23.0469 16.9532C23.4346 17.3409 23.7146 17.8229 23.8593 18.3517C23.8926 18.486 23.97 18.6051 24.079 18.6901C24.1881 18.7751 24.3226 18.821 24.4609 18.8205C24.5139 18.821 24.5666 18.8131 24.6171 18.797C24.6973 18.7771 24.7726 18.7413 24.8387 18.6917C24.9047 18.6421 24.9602 18.5798 25.0017 18.5084C25.0432 18.437 25.07 18.358 25.0804 18.2761C25.0909 18.1941 25.0848 18.1109 25.0624 18.0314C24.8651 17.2888 24.4751 16.6116 23.9318 16.0683C23.3885 15.525 22.7113 15.135 21.9687 14.9377C21.8872 14.908 21.8004 14.8956 21.7138 14.9012C21.6272 14.9069 21.5427 14.9306 21.4658 14.9707C21.3889 15.0108 21.3211 15.0665 21.2669 15.1342C21.2127 15.202 21.1731 15.2803 21.1508 15.3641C21.1285 15.448 21.1239 15.5355 21.1372 15.6213C21.1506 15.707 21.1817 15.789 21.2285 15.8621C21.2753 15.9351 21.3368 15.9976 21.4091 16.0456C21.4814 16.0936 21.5629 16.126 21.6484 16.1408Z" fill="white"/>
</g>
<defs>
<filter id="filter0_d_34_62" x="7.5" y="10.8984" width="25.6016" height="25.6016" filterUnits="userSpaceOnUse" color-interpolation-filters="sRGB">
<feFlood flood-opacity="0" result="BackgroundImageFix"/>
<feColorMatrix in="SourceAlpha" type="matrix" values="0 0 0 0 0 0 0 0 0 0 0 0 0 0 0 0 0 0 127 0" result="hardAlpha"/>
<feOffset dy="4"/>
<feGaussianBlur stdDeviation="2.5"/>
<feComposite in2="hardAlpha" operator="out"/>
<feColorMatrix type="matrix" values="0 0 0 0 0 0 0 0 0 0 0 0 0 0 0 0 0 0 0.1 0"/>
<feBlend mode="normal" in2="BackgroundImageFix" result="effect1_dropShadow_34_62"/>
<feBlend mode="normal" in="SourceGraphic" in2="effect1_dropShadow_34_62" result="shape"/>
</filter>
</defs>
</svg>
