<svg width="16" height="10" viewBox="0 0 16 10" fill="none" xmlns="http://www.w3.org/2000/svg">
<path d="M11.3749 1.0625C11.3222 1.1148 11.2804 1.17701 11.2518 1.24556C11.2233 1.3141 11.2086 1.38762 11.2086 1.46188C11.2086 1.53614 11.2233 1.60966 11.2518 1.6782C11.2804 1.74675 11.3222 1.80896 11.3749 1.86125L13.9624 4.44876H0.721191C0.572007 4.44876 0.428933 4.50802 0.323444 4.61351C0.217955 4.719 0.158691 4.86207 0.158691 5.01125C0.158691 5.16044 0.217955 5.30351 0.323444 5.409C0.428933 5.51449 0.572007 5.57375 0.721191 5.57375H13.9512L11.3749 8.14438C11.2702 8.24977 11.2114 8.39234 11.2114 8.54094C11.2114 8.68955 11.2702 8.83211 11.3749 8.9375C11.4803 9.04227 11.6229 9.10108 11.7715 9.10108C11.9201 9.10108 12.0627 9.04227 12.1681 8.9375L15.7456 5.36C15.7937 5.31381 15.832 5.25835 15.8582 5.19697C15.8844 5.13559 15.8979 5.06955 15.8979 5.00282C15.8979 4.93609 15.8844 4.87005 15.8582 4.80867C15.832 4.74728 15.7937 4.69183 15.7456 4.64563L12.1737 1.0625C12.1214 1.00978 12.0592 0.967936 11.9906 0.939378C11.9221 0.910821 11.8486 0.896118 11.7743 0.896118C11.7001 0.896118 11.6265 0.910821 11.558 0.939378C11.4894 0.967936 11.4272 1.00978 11.3749 1.0625Z" fill="#17365E"/>
</svg>
