<svg width="440" height="140" viewBox="0 0 440 140" fill="none" xmlns="http://www.w3.org/2000/svg">
<g filter="url(#filter0_d_3_17)">
<rect x="20" y="15" width="400" height="100" rx="50" fill="white"/>
<path d="M370 105C375.253 105 380.454 103.965 385.307 101.955C390.16 99.945 394.57 96.9986 398.284 93.2843C401.999 89.5699 404.945 85.1604 406.955 80.3073C408.965 75.4543 410 70.2529 410 65C410 59.7471 408.965 54.5457 406.955 49.6927C404.945 44.8396 401.999 40.4301 398.284 36.7157C394.57 33.0014 390.16 30.055 385.307 28.0448C380.454 26.0346 375.253 25 370 25L370 65V105Z" fill="url(#paint0_linear_3_17)"/>
<path d="M170.28 57.28L173.96 56H175.56V70H173.72V58L170.74 58.88L170.28 57.28ZM187.409 68.28C186.476 69.6 185.149 70.26 183.429 70.26C181.709 70.26 180.382 69.6 179.449 68.28C178.502 66.9467 178.029 65.1867 178.029 63C178.029 60.8133 178.502 59.0533 179.449 57.72C180.382 56.4 181.709 55.74 183.429 55.74C185.149 55.74 186.476 56.4 187.409 57.72C188.356 59.0533 188.829 60.8133 188.829 63C188.829 65.1867 188.356 66.9467 187.409 68.28ZM179.889 63C179.889 64.7333 180.196 66.0733 180.809 67.02C181.422 67.9667 182.296 68.44 183.429 68.44C184.562 68.44 185.436 67.9667 186.049 67.02C186.676 66.0733 186.989 64.7333 186.989 63C186.989 61.2667 186.676 59.9267 186.049 58.98C185.436 58.02 184.562 57.54 183.429 57.54C182.296 57.54 181.422 58.0133 180.809 58.96C180.196 59.9067 179.889 61.2533 179.889 63ZM196.967 60H204.387V70H202.647V61.68H198.707V65.76C198.707 67.36 198.387 68.5 197.747 69.18C197.107 69.8467 196.167 70.12 194.927 70V68.36C195.62 68.4533 196.133 68.3 196.467 67.9C196.8 67.4867 196.967 66.76 196.967 65.72V60ZM216.623 65.8H208.243C208.416 66.68 208.823 67.3733 209.463 67.88C210.103 68.3733 210.903 68.62 211.863 68.62C213.183 68.62 214.143 68.1333 214.743 67.16L216.223 68C215.236 69.5067 213.77 70.26 211.823 70.26C210.25 70.26 208.956 69.7667 207.943 68.78C206.956 67.7667 206.463 66.5067 206.463 65C206.463 63.48 206.95 62.2267 207.923 61.24C208.896 60.24 210.156 59.74 211.703 59.74C213.17 59.74 214.363 60.26 215.283 61.3C216.216 62.3133 216.683 63.5533 216.683 65.02C216.683 65.2733 216.663 65.5333 216.623 65.8ZM211.703 61.38C210.783 61.38 210.01 61.64 209.383 62.16C208.77 62.68 208.39 63.3867 208.243 64.28H214.923C214.776 63.36 214.41 62.6467 213.823 62.14C213.236 61.6333 212.53 61.38 211.703 61.38ZM217.173 60H225.733V61.68H222.333V70H220.593V61.68H217.173V60ZM239.178 64.16V60H240.918V70H239.178V65.82H233.998V70H232.257V60H233.998V64.16H239.178ZM251.846 61.72V60H253.586V70H251.846V68.28C250.993 69.6 249.733 70.26 248.066 70.26C246.653 70.26 245.459 69.7533 244.486 68.74C243.499 67.7133 243.006 66.4667 243.006 65C243.006 63.5467 243.499 62.3067 244.486 61.28C245.473 60.2533 246.666 59.74 248.066 59.74C249.733 59.74 250.993 60.4 251.846 61.72ZM248.286 68.58C249.299 68.58 250.146 68.24 250.826 67.56C251.506 66.8533 251.846 66 251.846 65C251.846 63.9867 251.506 63.14 250.826 62.46C250.146 61.7667 249.299 61.42 248.286 61.42C247.286 61.42 246.446 61.7667 245.766 62.46C245.086 63.14 244.746 63.9867 244.746 65C244.746 66 245.086 66.8533 245.766 67.56C246.446 68.24 247.286 68.58 248.286 68.58ZM266.742 59.74C268.142 59.74 269.336 60.2533 270.322 61.28C271.309 62.3067 271.802 63.5467 271.802 65C271.802 66.4667 271.309 67.7133 270.322 68.74C269.349 69.7533 268.156 70.26 266.742 70.26C265.089 70.26 263.829 69.6 262.962 68.28V74H261.222V60H262.962V61.72C263.829 60.4 265.089 59.74 266.742 59.74ZM266.522 68.58C267.522 68.58 268.362 68.24 269.042 67.56C269.722 66.8533 270.062 66 270.062 65C270.062 63.9867 269.722 63.14 269.042 62.46C268.362 61.7667 267.522 61.42 266.522 61.42C265.509 61.42 264.662 61.7667 263.982 62.46C263.302 63.14 262.962 63.9867 262.962 65C262.962 66 263.302 66.8533 263.982 67.56C264.662 68.24 265.509 68.58 266.522 68.58ZM275.619 63.6H278.099C279.099 63.6 279.925 63.9 280.579 64.5C281.245 65.0867 281.579 65.8533 281.579 66.8C281.579 67.7467 281.245 68.52 280.579 69.12C279.912 69.7067 279.085 70 278.099 70H273.879V60H275.619V63.6ZM282.879 70V60H284.619V70H282.879ZM275.619 68.38H278.099C278.605 68.38 279.025 68.2333 279.359 67.94C279.692 67.6467 279.859 67.2667 279.859 66.8C279.859 66.3333 279.685 65.9533 279.339 65.66C279.005 65.3533 278.592 65.2 278.099 65.2H275.619V68.38ZM294.197 64.16V60H295.937V70H294.197V65.82H289.017V70H287.277V60H289.017V64.16H294.197ZM302.106 64.84L307.046 70H304.886L300.326 65.26V70H298.586V60H300.326V64.42L304.646 60H306.886L302.106 64.84ZM317.346 65.8H308.966C309.139 66.68 309.546 67.3733 310.186 67.88C310.826 68.3733 311.626 68.62 312.586 68.62C313.906 68.62 314.866 68.1333 315.466 67.16L316.946 68C315.959 69.5067 314.492 70.26 312.546 70.26C310.972 70.26 309.679 69.7667 308.666 68.78C307.679 67.7667 307.186 66.5067 307.186 65C307.186 63.48 307.672 62.2267 308.646 61.24C309.619 60.24 310.879 59.74 312.426 59.74C313.892 59.74 315.086 60.26 316.006 61.3C316.939 62.3133 317.406 63.5533 317.406 65.02C317.406 65.2733 317.386 65.5333 317.346 65.8ZM312.426 61.38C311.506 61.38 310.732 61.64 310.106 62.16C309.492 62.68 309.112 63.3867 308.966 64.28H315.646C315.499 63.36 315.132 62.6467 314.546 62.14C313.959 61.6333 313.252 61.38 312.426 61.38Z" fill="#1E1E1E"/>
</g>
<defs>
<filter id="filter0_d_3_17" x="0" y="0" width="440" height="140" filterUnits="userSpaceOnUse" color-interpolation-filters="sRGB">
<feFlood flood-opacity="0" result="BackgroundImageFix"/>
<feColorMatrix in="SourceAlpha" type="matrix" values="0 0 0 0 0 0 0 0 0 0 0 0 0 0 0 0 0 0 127 0" result="hardAlpha"/>
<feOffset dy="5"/>
<feGaussianBlur stdDeviation="10"/>
<feComposite in2="hardAlpha" operator="out"/>
<feColorMatrix type="matrix" values="0 0 0 0 0.839216 0 0 0 0 0.858824 0 0 0 0 0.882353 0 0 0 0.2 0"/>
<feBlend mode="normal" in2="BackgroundImageFix" result="effect1_dropShadow_3_17"/>
<feBlend mode="normal" in="SourceGraphic" in2="effect1_dropShadow_3_17" result="shape"/>
</filter>
<linearGradient id="paint0_linear_3_17" x1="392.5" y1="54.5" x2="390" y2="70" gradientUnits="userSpaceOnUse">
<stop stop-color="#F4911D"/>
<stop offset="1" stop-color="#CA7613"/>
</linearGradient>
</defs>
</svg>
