<svg width="140" height="140" viewBox="0 0 140 140" fill="none" xmlns="http://www.w3.org/2000/svg">
<circle cx="70" cy="70" r="66.5" fill="#F5921D" stroke="#CA7614" stroke-width="7"/>
<path d="M80.9375 51.4062C80.9375 52.9205 81.3865 54.4008 82.2278 55.6598C83.0691 56.9189 84.2648 57.9002 85.6638 58.4797C87.0628 59.0592 88.6022 59.2108 90.0874 58.9154C91.5726 58.62 92.9368 57.8908 94.0075 56.82C95.0783 55.7493 95.8075 54.3851 96.1029 52.8999C96.3983 51.4147 96.2467 49.8753 95.6672 48.4763C95.0877 47.0773 94.1064 45.8816 92.8473 45.0403C91.5883 44.199 90.108 43.75 88.5938 43.75C86.5639 43.7523 84.6178 44.5597 83.1825 45.995C81.7472 47.4303 80.9398 49.3764 80.9375 51.4062ZM88.5938 45.9375C89.6754 45.9375 90.7327 46.2582 91.632 46.8592C92.5314 47.4601 93.2323 48.3142 93.6462 49.3135C94.0601 50.3127 94.1684 51.4123 93.9574 52.4732C93.7464 53.534 93.2256 54.5084 92.4607 55.2732C91.6959 56.0381 90.7215 56.5589 89.6607 56.7699C88.5998 56.9809 87.5002 56.8726 86.5009 56.4587C85.5017 56.0448 84.6476 55.3439 84.0466 54.4445C83.4457 53.5452 83.125 52.4879 83.125 51.4062C83.1267 49.9564 83.7035 48.5664 84.7287 47.5412C85.7539 46.516 87.1439 45.9392 88.5938 45.9375Z" fill="white"/>
<path d="M89.6875 38.2812C89.6875 37.6772 89.1978 37.1875 88.5938 37.1875C87.9897 37.1875 87.5 37.6772 87.5 38.2812V40.4688C87.5 41.0728 87.9897 41.5625 88.5938 41.5625C89.1978 41.5625 89.6875 41.0728 89.6875 40.4688V38.2812Z" fill="white"/>
<path d="M51.4062 38.2812C51.4062 37.6772 50.9166 37.1875 50.3125 37.1875C49.7084 37.1875 49.2188 37.6772 49.2188 38.2812V40.4688C49.2188 41.0728 49.7084 41.5625 50.3125 41.5625C50.9166 41.5625 51.4062 41.0728 51.4062 40.4688V38.2812Z" fill="white"/>
<path d="M58.4226 40.4688L56.8749 42.0165C56.6757 42.2227 56.5654 42.499 56.5679 42.7858C56.5704 43.0726 56.6854 43.3469 56.8882 43.5497C57.091 43.7525 57.3653 43.8675 57.6521 43.87C57.9389 43.8725 58.2152 43.7623 58.4215 43.563L59.9691 42.0154C60.0736 41.9145 60.1569 41.7938 60.2142 41.6603C60.2716 41.5269 60.3017 41.3834 60.303 41.2381C60.3042 41.0929 60.2766 40.9489 60.2216 40.8145C60.1666 40.6801 60.0854 40.5579 59.9827 40.4552C59.88 40.3525 59.7579 40.2713 59.6234 40.2163C59.489 40.1613 59.345 40.1337 59.1998 40.1349C59.0545 40.1362 58.911 40.1664 58.7776 40.2237C58.6441 40.281 58.5235 40.3643 58.4226 40.4688Z" fill="white"/>
<path d="M42.0152 40.4688C41.8089 40.2695 41.5326 40.1593 41.2459 40.1618C40.9591 40.1643 40.6848 40.2793 40.482 40.4821C40.2792 40.6849 40.1642 40.9592 40.1617 41.246C40.1592 41.5328 40.2694 41.8091 40.4686 42.0153L42.0163 43.563C42.2226 43.7622 42.4989 43.8725 42.7857 43.87C43.0724 43.8675 43.3468 43.7525 43.5495 43.5497C43.7523 43.3469 43.8674 43.0726 43.8699 42.7858C43.8723 42.499 43.7621 42.2227 43.5629 42.0164L42.0152 40.4688Z" fill="white"/>
<path d="M62.3438 49.2188H60.1562C59.5522 49.2188 59.0625 49.7084 59.0625 50.3125C59.0625 50.9166 59.5522 51.4062 60.1562 51.4062H62.3438C62.9478 51.4062 63.4375 50.9166 63.4375 50.3125C63.4375 49.7084 62.9478 49.2188 62.3438 49.2188Z" fill="white"/>
<path d="M40.4688 49.2188H38.2812C37.6772 49.2188 37.1875 49.7084 37.1875 50.3125C37.1875 50.9166 37.6772 51.4062 38.2812 51.4062H40.4688C41.0728 51.4062 41.5625 50.9166 41.5625 50.3125C41.5625 49.7084 41.0728 49.2188 40.4688 49.2188Z" fill="white"/>
<path d="M101.719 50.3125H99.5312C98.9272 50.3125 98.4375 50.8022 98.4375 51.4062C98.4375 52.0103 98.9272 52.5 99.5312 52.5H101.719C102.323 52.5 102.812 52.0103 102.812 51.4062C102.812 50.8022 102.323 50.3125 101.719 50.3125Z" fill="white"/>
<path d="M77.6562 50.3125H75.4688C74.8647 50.3125 74.375 50.8022 74.375 51.4062C74.375 52.0103 74.8647 52.5 75.4688 52.5H77.6562C78.2603 52.5 78.75 52.0103 78.75 51.4062C78.75 50.8022 78.2603 50.3125 77.6562 50.3125Z" fill="white"/>
<path d="M98.6475 41.3525C98.4424 41.1474 98.1642 41.0322 97.8742 41.0322C97.5842 41.0322 97.306 41.1474 97.1009 41.3525L95.5543 42.899C95.3551 43.1053 95.2449 43.3816 95.2474 43.6684C95.2498 43.9551 95.3649 44.2295 95.5677 44.4323C95.7705 44.6351 96.0448 44.7501 96.3316 44.7526C96.6183 44.7551 96.8946 44.6448 97.1009 44.4456L98.6475 42.899C98.8525 42.6939 98.9677 42.4158 98.9677 42.1257C98.9677 41.8357 98.8525 41.5576 98.6475 41.3525Z" fill="white"/>
<path d="M80.0865 58.3669L78.5399 59.9134C78.3407 60.1197 78.2305 60.396 78.233 60.6828C78.2354 60.9696 78.3505 61.2439 78.5533 61.4467C78.7561 61.6495 79.0304 61.7645 79.3172 61.767C79.6039 61.7695 79.8802 61.6592 80.0865 61.46L81.6331 59.9134C81.7375 59.8125 81.8209 59.6918 81.8782 59.5584C81.9355 59.425 81.9657 59.2814 81.9669 59.1362C81.9682 58.991 81.9405 58.847 81.8855 58.7125C81.8305 58.5781 81.7493 58.456 81.6466 58.3533C81.5439 58.2506 81.4218 58.1694 81.2874 58.1144C81.153 58.0594 81.0089 58.0317 80.8637 58.033C80.7185 58.0343 80.575 58.0644 80.4415 58.1218C80.3081 58.1791 80.1874 58.2624 80.0865 58.3669Z" fill="white"/>
<path d="M95.5544 58.3669C95.3493 58.572 95.2341 58.8501 95.2341 59.1401C95.2341 59.4302 95.3493 59.7083 95.5544 59.9134L97.1009 61.46C97.3072 61.6592 97.5835 61.7695 97.8703 61.767C98.1571 61.7645 98.4314 61.6495 98.6342 61.4467C98.837 61.2439 98.952 60.9696 98.9545 60.6828C98.957 60.396 98.8467 60.1197 98.6475 59.9134L97.1009 58.3669C96.8958 58.1618 96.6177 58.0466 96.3276 58.0466C96.0376 58.0466 95.7595 58.1618 95.5544 58.3669Z" fill="white"/>
<path d="M80.0865 41.3526C79.8802 41.1533 79.6039 41.0431 79.3172 41.0456C79.0304 41.0481 78.7561 41.1631 78.5533 41.3659C78.3505 41.5687 78.2354 41.843 78.233 42.1298C78.2305 42.4166 78.3407 42.6928 78.5399 42.8991L80.0865 44.4457C80.1874 44.5501 80.3081 44.6335 80.4415 44.6908C80.575 44.7481 80.7185 44.7783 80.8637 44.7796C81.0089 44.7808 81.153 44.7531 81.2874 44.6981C81.4218 44.6432 81.5439 44.5619 81.6466 44.4592C81.7493 44.3565 81.8305 44.2344 81.8855 44.1C81.9405 43.9656 81.9682 43.8216 81.9669 43.6763C81.9657 43.5311 81.9355 43.3876 81.8782 43.2541C81.8209 43.1207 81.7375 43 81.6331 42.8991L80.0865 41.3526Z" fill="white"/>
<path d="M67.3848 74.375H57.9688C57.799 74.375 57.6315 74.4145 57.4796 74.4905C57.3277 74.5664 57.1956 74.6767 57.0938 74.8125L43.9688 92.3125C43.8469 92.475 43.7727 92.6682 43.7544 92.8705C43.7362 93.0728 43.7746 93.2762 43.8655 93.4579C43.9563 93.6396 44.0959 93.7924 44.2687 93.8991C44.4415 94.0059 44.6406 94.0625 44.8438 94.0625H68.9062V100.625H66.7188C66.4287 100.625 66.1505 100.74 65.9454 100.945C65.7402 101.15 65.625 101.429 65.625 101.719C65.625 102.009 65.7402 102.287 65.9454 102.492C66.1505 102.697 66.4287 102.812 66.7188 102.812H73.2812C73.5713 102.812 73.8495 102.697 74.0546 102.492C74.2598 102.287 74.375 102.009 74.375 101.719C74.375 101.429 74.2598 101.15 74.0546 100.945C73.8495 100.74 73.5713 100.625 73.2812 100.625H71.0938V94.0625H95.1562C95.3594 94.0625 95.5585 94.0059 95.7313 93.8991C95.9041 93.7924 96.0437 93.6396 96.1345 93.4579C96.2254 93.2762 96.2638 93.0728 96.2456 92.8705C96.2273 92.6682 96.1531 92.475 96.0312 92.3125L82.9062 74.8125C82.8044 74.6767 82.6723 74.5664 82.5204 74.4905C82.3685 74.4145 82.201 74.375 82.0312 74.375H67.3848ZM68.3145 76.5625H71.6855L72.042 78.75H67.958L68.3145 76.5625ZM58.5156 76.5625H61.5486L60.6211 78.75H56.875L58.5156 76.5625ZM55.2344 80.9375H59.6936L58.7661 83.125H53.5938L55.2344 80.9375ZM55.0572 91.875H47.0313L48.6719 89.6875H55.9836L55.0572 91.875ZM50.3125 87.5L51.9531 85.3125H57.8386L56.9111 87.5H50.3125ZM63.6016 91.875H57.4328L58.3603 89.6875H63.9581L63.6016 91.875ZM64.3147 87.5H59.2834L60.2109 85.3125H64.6669L64.3147 87.5ZM65.0278 83.125H61.1406L62.0681 80.9375H65.3844L65.0278 83.125ZM63 78.75L63.9275 76.5625H66.1019L65.7453 78.75H63ZM75.332 85.3125H79.788L80.7155 87.5H75.6875L75.332 85.3125ZM76.4017 91.875L76.0452 89.6875H81.643L82.5705 91.875H76.4017ZM92.9688 91.875H84.9428L84.0164 89.6875H91.3281L92.9688 91.875ZM89.6875 87.5H83.0889L82.1614 85.3125H88.0469L89.6875 87.5ZM86.4062 83.125H81.2339L80.3064 80.9375H84.7656L86.4062 83.125ZM81.4844 76.5625L83.125 78.75H79.3789L78.4514 76.5625H81.4844ZM78.8594 83.125H74.9722L74.6145 80.9375H77.9308L78.8594 83.125ZM76.0769 76.5625L77.0044 78.75H74.2591L73.9025 76.5625H76.0769ZM74.1825 91.875H65.8175L66.1741 89.6875H73.8303L74.1825 91.875ZM73.4694 87.5H66.5306L66.8883 85.3125H73.1117L73.4694 87.5ZM67.2448 83.125L67.6014 80.9375H72.3986L72.7552 83.125H67.2448Z" fill="white"/>
<path d="M43.75 50.3125C43.7488 51.2323 43.9432 52.1419 44.3203 52.9808C44.6975 53.8198 45.2487 54.5689 45.9375 55.1786V55.7812C45.9373 55.9509 45.9767 56.1183 46.0523 56.2702L47.0313 58.2269V61.25C47.0313 61.8302 47.2617 62.3866 47.672 62.7968C48.0822 63.207 48.6386 63.4375 49.2188 63.4375H51.4063C51.9864 63.4375 52.5428 63.207 52.9531 62.7968C53.3633 62.3866 53.5938 61.8302 53.5938 61.25V58.2269L54.5727 56.2702C54.6483 56.1183 54.6877 55.9509 54.6875 55.7812V55.1786C55.3763 54.5689 55.9275 53.8198 56.3047 52.9808C56.6818 52.1419 56.8762 51.2323 56.875 50.3125C56.875 48.572 56.1836 46.9028 54.9529 45.6721C53.7222 44.4414 52.053 43.75 50.3125 43.75C48.572 43.75 46.9028 44.4414 45.6721 45.6721C44.4414 46.9028 43.75 48.572 43.75 50.3125ZM49.2188 61.25V59.0625H51.4063V61.25H49.2188ZM50.3125 45.9375C51.4728 45.9375 52.5856 46.3984 53.4061 47.2189C54.2266 48.0394 54.6875 49.1522 54.6875 50.3125C54.6872 50.9885 54.5288 51.6551 54.2249 52.2591C53.921 52.863 53.4802 53.3875 52.9375 53.7906C52.8017 53.8925 52.6914 54.0246 52.6155 54.1765C52.5395 54.3284 52.5 54.4958 52.5 54.6656V55.5253L51.8241 56.875H48.8009L48.125 55.5231V54.6634C48.125 54.4936 48.0855 54.3262 48.0095 54.1743C47.9336 54.0224 47.8233 53.8903 47.6875 53.7884C47.1451 53.3855 46.7044 52.8614 46.4006 52.2578C46.0968 51.6543 45.9382 50.9882 45.9375 50.3125C45.9375 49.1522 46.3984 48.0394 47.2189 47.2189C48.0394 46.3984 49.1522 45.9375 50.3125 45.9375Z" fill="white"/>
<path d="M88.5938 63.4375C89.1978 63.4375 89.6875 62.9478 89.6875 62.3438C89.6875 61.7397 89.1978 61.25 88.5938 61.25C87.9897 61.25 87.5 61.7397 87.5 62.3438C87.5 62.9478 87.9897 63.4375 88.5938 63.4375Z" fill="white"/>
<path d="M88.5938 67.8125C89.1978 67.8125 89.6875 67.3228 89.6875 66.7188C89.6875 66.1147 89.1978 65.625 88.5938 65.625C87.9897 65.625 87.5 66.1147 87.5 66.7188C87.5 67.3228 87.9897 67.8125 88.5938 67.8125Z" fill="white"/>
<path d="M88.5938 72.1875C89.1978 72.1875 89.6875 71.6978 89.6875 71.0938C89.6875 70.4897 89.1978 70 88.5938 70C87.9897 70 87.5 70.4897 87.5 71.0938C87.5 71.6978 87.9897 72.1875 88.5938 72.1875Z" fill="white"/>
<path d="M88.5938 76.5625C89.1978 76.5625 89.6875 76.0728 89.6875 75.4688C89.6875 74.8647 89.1978 74.375 88.5938 74.375C87.9897 74.375 87.5 74.8647 87.5 75.4688C87.5 76.0728 87.9897 76.5625 88.5938 76.5625Z" fill="white"/>
<path d="M50.3125 67.8125C50.9166 67.8125 51.4062 67.3228 51.4062 66.7188C51.4062 66.1147 50.9166 65.625 50.3125 65.625C49.7084 65.625 49.2188 66.1147 49.2188 66.7188C49.2188 67.3228 49.7084 67.8125 50.3125 67.8125Z" fill="white"/>
<path d="M50.3125 72.1875C50.9166 72.1875 51.4062 71.6978 51.4062 71.0938C51.4062 70.4897 50.9166 70 50.3125 70C49.7084 70 49.2188 70.4897 49.2188 71.0938C49.2188 71.6978 49.7084 72.1875 50.3125 72.1875Z" fill="white"/>
<path d="M50.3125 76.5625C50.9166 76.5625 51.4062 76.0728 51.4062 75.4688C51.4062 74.8647 50.9166 74.375 50.3125 74.375C49.7084 74.375 49.2188 74.8647 49.2188 75.4688C49.2188 76.0728 49.7084 76.5625 50.3125 76.5625Z" fill="white"/>
</svg>
