<svg width="440" height="140" viewBox="0 0 440 140" fill="none" xmlns="http://www.w3.org/2000/svg">
<g filter="url(#filter0_d_3_16)">
<rect x="20" y="15" width="400" height="100" rx="50" fill="white"/>
<path d="M370 105C375.253 105 380.454 103.965 385.307 101.955C390.16 99.945 394.57 96.9986 398.284 93.2843C401.999 89.5699 404.945 85.1604 406.955 80.3073C408.965 75.4543 410 70.2529 410 65C410 59.7471 408.965 54.5457 406.955 49.6927C404.945 44.8396 401.999 40.4301 398.284 36.7157C394.57 33.0014 390.16 30.055 385.307 28.0448C380.454 26.0346 375.253 25 370 25L370 65V105Z" fill="url(#paint0_linear_3_16)"/>
<path d="M181.76 44V56.24H183.26V60.68H181.4V58H172.16V60.68H170.3V56.24H171.52C172.387 55.1467 172.82 53.5067 172.82 51.32V44H181.76ZM173.62 56.24H179.9V45.74H174.68V51.36C174.68 53.4667 174.327 55.0933 173.62 56.24ZM193.116 49.72V48H194.856V58H193.116V56.28C192.262 57.6 191.002 58.26 189.336 58.26C187.922 58.26 186.729 57.7533 185.756 56.74C184.769 55.7133 184.276 54.4667 184.276 53C184.276 51.5467 184.769 50.3067 185.756 49.28C186.742 48.2533 187.936 47.74 189.336 47.74C191.002 47.74 192.262 48.4 193.116 49.72ZM189.556 56.58C190.569 56.58 191.416 56.24 192.096 55.56C192.776 54.8533 193.116 54 193.116 53C193.116 51.9867 192.776 51.14 192.096 50.46C191.416 49.7667 190.569 49.42 189.556 49.42C188.556 49.42 187.716 49.7667 187.036 50.46C186.356 51.14 186.016 51.9867 186.016 53C186.016 54 186.356 54.8533 187.036 55.56C187.716 56.24 188.556 56.58 189.556 56.58ZM207.092 53.8H198.712C198.885 54.68 199.292 55.3733 199.932 55.88C200.572 56.3733 201.372 56.62 202.332 56.62C203.652 56.62 204.612 56.1333 205.212 55.16L206.692 56C205.705 57.5067 204.239 58.26 202.292 58.26C200.719 58.26 199.425 57.7667 198.412 56.78C197.425 55.7667 196.932 54.5067 196.932 53C196.932 51.48 197.419 50.2267 198.392 49.24C199.365 48.24 200.625 47.74 202.172 47.74C203.639 47.74 204.832 48.26 205.752 49.3C206.685 50.3133 207.152 51.5533 207.152 53.02C207.152 53.2733 207.132 53.5333 207.092 53.8ZM202.172 49.38C201.252 49.38 200.479 49.64 199.852 50.16C199.239 50.68 198.859 51.3867 198.712 52.28H205.392C205.245 51.36 204.879 50.6467 204.292 50.14C203.705 49.6333 202.999 49.38 202.172 49.38ZM217.292 48H219.152V58H217.452V50.74L214.272 55.86H214.052L210.872 50.74V58H209.152V48H211.012L214.152 53.06L217.292 48ZM226.808 48H233.368V49.68H228.548V58H226.808V48ZM242.784 49.72V48H244.524V58H242.784V56.28C241.93 57.6 240.67 58.26 239.004 58.26C237.59 58.26 236.397 57.7533 235.424 56.74C234.437 55.7133 233.944 54.4667 233.944 53C233.944 51.5467 234.437 50.3067 235.424 49.28C236.41 48.2533 237.604 47.74 239.004 47.74C240.67 47.74 241.93 48.4 242.784 49.72ZM239.224 56.58C240.237 56.58 241.084 56.24 241.764 55.56C242.444 54.8533 242.784 54 242.784 53C242.784 51.9867 242.444 51.14 241.764 50.46C241.084 49.7667 240.237 49.42 239.224 49.42C238.224 49.42 237.384 49.7667 236.704 50.46C236.024 51.14 235.684 51.9867 235.684 53C235.684 54 236.024 54.8533 236.704 55.56C237.384 56.24 238.224 56.58 239.224 56.58ZM252.68 47.74C254.08 47.74 255.273 48.2533 256.26 49.28C257.247 50.3067 257.74 51.5467 257.74 53C257.74 54.4667 257.247 55.7133 256.26 56.74C255.287 57.7533 254.093 58.26 252.68 58.26C251.027 58.26 249.767 57.6 248.9 56.28V62H247.16V48H248.9V49.72C249.767 48.4 251.027 47.74 252.68 47.74ZM252.46 56.58C253.46 56.58 254.3 56.24 254.98 55.56C255.66 54.8533 256 54 256 53C256 51.9867 255.66 51.14 254.98 50.46C254.3 49.7667 253.46 49.42 252.46 49.42C251.447 49.42 250.6 49.7667 249.92 50.46C249.24 51.14 248.9 51.9867 248.9 53C248.9 54 249.24 54.8533 249.92 55.56C250.6 56.24 251.447 56.58 252.46 56.58ZM268.096 49.72V48H269.836V58H268.096V56.28C267.243 57.6 265.983 58.26 264.316 58.26C262.903 58.26 261.709 57.7533 260.736 56.74C259.749 55.7133 259.256 54.4667 259.256 53C259.256 51.5467 259.749 50.3067 260.736 49.28C261.723 48.2533 262.916 47.74 264.316 47.74C265.983 47.74 267.243 48.4 268.096 49.72ZM264.536 56.58C265.549 56.58 266.396 56.24 267.076 55.56C267.756 54.8533 268.096 54 268.096 53C268.096 51.9867 267.756 51.14 267.076 50.46C266.396 49.7667 265.549 49.42 264.536 49.42C263.536 49.42 262.696 49.7667 262.016 50.46C261.336 51.14 260.996 51.9867 260.996 53C260.996 54 261.336 54.8533 262.016 55.56C262.696 56.24 263.536 56.58 264.536 56.58ZM279.392 52.16V48H281.132V58H279.392V53.82H274.212V58H272.472V48H274.212V52.16H279.392ZM282.661 48H291.221V49.68H287.821V58H286.081V49.68H282.661V48ZM294.466 55.02L300.006 48H301.406V58H299.686V50.98L294.146 58H292.746V48H294.466V55.02ZM312.794 47.74C314.261 47.74 315.501 48.2467 316.514 49.26C317.541 50.2867 318.054 51.5333 318.054 53C318.054 54.4667 317.541 55.7133 316.514 56.74C315.501 57.7533 314.261 58.26 312.794 58.26C311.474 58.26 310.334 57.84 309.374 57C308.401 56.16 307.828 55.1 307.654 53.82H305.794V58H304.054V48H305.794V52.16H307.654C307.841 50.88 308.414 49.8267 309.374 49C310.361 48.16 311.501 47.74 312.794 47.74ZM312.794 56.56C313.781 56.56 314.614 56.22 315.294 55.54C315.974 54.86 316.314 54.0133 316.314 53C316.314 51.9867 315.974 51.14 315.294 50.46C314.614 49.78 313.781 49.44 312.794 49.44C311.794 49.44 310.954 49.78 310.274 50.46C309.594 51.14 309.254 51.9867 309.254 53C309.254 54.0133 309.594 54.86 310.274 55.54C310.954 56.22 311.794 56.56 312.794 56.56ZM179.92 72V80.34H181.3V84.68H179.58V82H172.08V84.68H170.36V80.34H171.58C172.22 79.46 172.54 78.2267 172.54 76.64V72H179.92ZM173.56 80.34H178.2V73.62H174.26V76.64C174.26 78.1067 174.027 79.34 173.56 80.34ZM191.225 80.74C190.212 81.7533 188.965 82.26 187.485 82.26C186.005 82.26 184.758 81.7533 183.745 80.74C182.732 79.7267 182.225 78.48 182.225 77C182.225 75.52 182.732 74.2733 183.745 73.26C184.758 72.2467 186.005 71.74 187.485 71.74C188.965 71.74 190.212 72.2467 191.225 73.26C192.252 74.2867 192.765 75.5333 192.765 77C192.765 78.4667 192.252 79.7133 191.225 80.74ZM187.485 80.56C188.485 80.56 189.325 80.22 190.005 79.54C190.685 78.86 191.025 78.0133 191.025 77C191.025 75.9867 190.685 75.14 190.005 74.46C189.325 73.78 188.485 73.44 187.485 73.44C186.498 73.44 185.665 73.78 184.985 74.46C184.305 75.14 183.965 75.9867 183.965 77C183.965 78.0133 184.305 78.86 184.985 79.54C185.665 80.22 186.498 80.56 187.485 80.56ZM208.256 82H199.216V80.48L204.156 75.44C205.476 74.12 206.136 72.9867 206.136 72.04C206.136 71.2667 205.896 70.66 205.416 70.22C204.949 69.7667 204.363 69.54 203.656 69.54C202.336 69.54 201.376 70.1667 200.776 71.42L199.216 70.5C199.643 69.6067 200.243 68.9267 201.016 68.46C201.789 67.98 202.663 67.74 203.636 67.74C204.823 67.74 205.843 68.1267 206.696 68.9C207.563 69.6867 207.996 70.7267 207.996 72.02C207.996 73.4333 207.163 74.9733 205.496 76.64L201.916 80.2H208.256V82ZM212.247 73.46H214.287C215.607 73.46 216.72 73.8533 217.627 74.64C218.547 75.4267 219.007 76.5 219.007 77.86C219.007 79.2333 218.54 80.3067 217.607 81.08C216.66 81.8667 215.527 82.26 214.207 82.26C213.113 82.26 212.147 82 211.307 81.48C210.48 80.9467 209.907 80.2067 209.587 79.26L211.167 78.36C211.353 79.0267 211.713 79.54 212.247 79.9C212.78 80.26 213.433 80.44 214.207 80.44C215.1 80.44 215.813 80.2133 216.347 79.76C216.893 79.2933 217.167 78.66 217.167 77.86C217.167 77.06 216.893 76.4267 216.347 75.96C215.813 75.4933 215.113 75.26 214.247 75.26H210.287L210.807 68H218.467V69.74H212.487L212.247 73.46ZM226.986 72H234.406V82H232.666V73.68H228.726V77.76C228.726 79.36 228.406 80.5 227.766 81.18C227.126 81.8467 226.186 82.12 224.946 82V80.36C225.639 80.4533 226.153 80.3 226.486 79.9C226.819 79.4867 226.986 78.76 226.986 77.72V72ZM246.643 77.8H238.263C238.436 78.68 238.843 79.3733 239.483 79.88C240.123 80.3733 240.923 80.62 241.883 80.62C243.203 80.62 244.163 80.1333 244.763 79.16L246.243 80C245.256 81.5067 243.789 82.26 241.843 82.26C240.269 82.26 238.976 81.7667 237.963 80.78C236.976 79.7667 236.483 78.5067 236.483 77C236.483 75.48 236.969 74.2267 237.943 73.24C238.916 72.24 240.176 71.74 241.723 71.74C243.189 71.74 244.383 72.26 245.303 73.3C246.236 74.3133 246.703 75.5533 246.703 77.02C246.703 77.2733 246.683 77.5333 246.643 77.8ZM241.723 73.38C240.803 73.38 240.029 73.64 239.403 74.16C238.789 74.68 238.409 75.3867 238.263 76.28H244.943C244.796 75.36 244.429 74.6467 243.843 74.14C243.256 73.6333 242.549 73.38 241.723 73.38ZM247.192 72H255.752V73.68H252.352V82H250.612V73.68H247.192V72Z" fill="#1E1E1E"/>
</g>
<defs>
<filter id="filter0_d_3_16" x="0" y="0" width="440" height="140" filterUnits="userSpaceOnUse" color-interpolation-filters="sRGB">
<feFlood flood-opacity="0" result="BackgroundImageFix"/>
<feColorMatrix in="SourceAlpha" type="matrix" values="0 0 0 0 0 0 0 0 0 0 0 0 0 0 0 0 0 0 127 0" result="hardAlpha"/>
<feOffset dy="5"/>
<feGaussianBlur stdDeviation="10"/>
<feComposite in2="hardAlpha" operator="out"/>
<feColorMatrix type="matrix" values="0 0 0 0 0.839216 0 0 0 0 0.858824 0 0 0 0 0.882353 0 0 0 0.2 0"/>
<feBlend mode="normal" in2="BackgroundImageFix" result="effect1_dropShadow_3_16"/>
<feBlend mode="normal" in="SourceGraphic" in2="effect1_dropShadow_3_16" result="shape"/>
</filter>
<linearGradient id="paint0_linear_3_16" x1="390" y1="52.5" x2="390" y2="73.5" gradientUnits="userSpaceOnUse">
<stop stop-color="#1EB59A"/>
<stop offset="1" stop-color="#0D8670"/>
</linearGradient>
</defs>
</svg>
