<svg width="140" height="140" viewBox="0 0 140 140" fill="none" xmlns="http://www.w3.org/2000/svg">
<circle cx="70" cy="70" r="66.5" fill="#1FB69A" stroke="#0E8671" stroke-width="7"/>
<path d="M96.2253 86.3373L84.9996 75.1265C88.058 71.5057 89.7304 66.9718 89.7304 62.1667C89.7304 61.6423 89.7102 61.096 89.6698 60.5918C89.589 59.5817 88.6766 58.8043 87.6945 58.9107C86.683 58.9913 85.9303 59.875 86.0111 60.8833C86.0423 61.294 86.0588 61.7395 86.0588 62.1667C86.0588 66.6052 84.3222 70.765 81.172 73.878C78.769 76.243 75.762 77.8087 72.4558 78.4063C70.7044 78.7455 68.5603 78.7675 66.506 78.3843C63.2329 77.7885 60.2406 76.2137 57.8559 73.8322C54.7351 70.7137 53.015 66.5703 53.015 62.1667C53.015 53.0697 60.4278 45.6667 69.5369 45.6667C73.9813 45.6667 78.154 47.4065 81.284 50.5672C81.9963 51.2858 83.1601 51.2932 83.8798 50.5818C84.6012 49.8705 84.6067 48.71 83.8944 47.9895C80.0687 44.1267 74.9689 42 69.5369 42C58.4029 42 49.3434 51.0475 49.3434 62.1667C49.3434 66.9352 50.9975 71.4488 54.0246 75.066L42.5382 86.5372C42.0132 87.0615 41.8553 87.8498 42.1399 88.5355C42.4244 89.2193 43.0945 89.6667 43.8361 89.6667H49.3434V95.1667C49.3434 95.9073 49.7914 96.5765 50.4761 96.8607C50.7037 96.9542 50.9424 97 51.1792 97C51.6565 97 52.1265 96.813 52.4771 96.4628L66.831 82.128C67.7323 82.2508 68.6355 82.3333 69.5369 82.3333C70.4529 82.3333 71.3194 82.2563 72.151 82.1463L86.4865 96.4628C86.8372 96.813 87.3071 97 87.7844 97C88.0213 97 88.2599 96.9542 88.4875 96.8607C89.1741 96.5765 89.6202 95.9073 89.6202 95.1667V89.6667H95.1275C95.133 89.6667 95.1404 89.6667 95.1459 89.6667C96.2382 89.6153 97 88.8527 97 87.8333C97 87.2155 96.6934 86.6692 96.2253 86.3373ZM53.015 90.741V87.8333C53.015 86.8213 52.1925 86 51.1792 86H48.2677L56.6149 77.6638C56.7287 77.7573 56.8499 77.8398 56.9637 77.9315C57.2464 78.1588 57.5328 78.3807 57.8265 78.5897C57.9954 78.7107 58.168 78.8243 58.3405 78.9398C58.6287 79.1323 58.9188 79.3193 59.2162 79.4953C59.3961 79.6035 59.5778 79.708 59.7614 79.8088C60.0662 79.9775 60.3746 80.137 60.6866 80.2892C60.8684 80.3772 61.0483 80.467 61.2319 80.5495C61.5733 80.7035 61.9203 80.8428 62.2691 80.9767C62.3939 81.0243 62.5132 81.083 62.6399 81.1288L53.015 90.741ZM87.7844 86C86.7711 86 85.9487 86.8213 85.9487 87.8333V90.741L76.3476 81.1508C76.4871 81.1013 76.6211 81.0353 76.7606 80.9822C77.0892 80.8557 77.416 80.7273 77.7391 80.5843C77.9392 80.4945 78.1356 80.3973 78.3339 80.3038C78.6313 80.159 78.925 80.0105 79.2132 79.851C79.4097 79.7428 79.6043 79.6328 79.797 79.5192C80.0834 79.3505 80.3624 79.1745 80.6396 78.9912C80.8232 78.8702 81.0049 78.751 81.183 78.6245C81.4731 78.4192 81.7558 78.2028 82.0348 77.981C82.1523 77.8875 82.2771 77.805 82.3928 77.7097L90.696 86H87.7844Z" fill="white"/>
<path d="M61.0484 59.0482C60.3104 58.357 59.1465 58.3955 58.4544 59.1343C57.7624 59.8732 57.8009 61.0337 58.5407 61.7248L68.2942 70.8383C68.6448 71.1683 69.0964 71.3333 69.5462 71.3333C69.9959 71.3333 70.4475 71.1683 70.8 70.8383L90.4207 52.505C91.1605 51.8138 91.1991 50.6533 90.507 49.9145C89.8131 49.1738 88.651 49.1372 87.913 49.8283L69.548 66.9883L61.0484 59.0482Z" fill="white"/>
</svg>
