<svg width="440" height="140" viewBox="0 0 440 140" fill="none" xmlns="http://www.w3.org/2000/svg">
<g filter="url(#filter0_d_3_18)">
<rect x="20" y="15" width="400" height="100" rx="50" fill="white"/>
<path d="M370 105C375.253 105 380.454 103.965 385.307 101.955C390.16 99.945 394.57 96.9986 398.284 93.2843C401.999 89.5699 404.945 85.1604 406.955 80.3073C408.965 75.4543 410 70.2529 410 65C410 59.7471 408.965 54.5457 406.955 49.6927C404.945 44.8396 401.999 40.4301 398.284 36.7157C394.57 33.0014 390.16 30.055 385.307 28.0448C380.454 26.0346 375.253 25 370 25L370 65V105Z" fill="url(#paint0_linear_3_18)"/>
<path d="M179.5 50.74C180.153 51.06 180.667 51.5067 181.04 52.08C181.413 52.6533 181.6 53.3067 181.6 54.04C181.6 55.16 181.207 56.1 180.42 56.86C179.633 57.62 178.673 58 177.54 58H171.5V44H177.1C178.207 44 179.133 44.3667 179.88 45.1C180.64 45.8333 181.02 46.74 181.02 47.82C181.02 49.0733 180.513 50.0467 179.5 50.74ZM177.1 45.74H173.36V50.02H177.1C177.687 50.02 178.18 49.8133 178.58 49.4C178.98 48.9867 179.18 48.48 179.18 47.88C179.18 47.2933 178.973 46.7933 178.56 46.38C178.16 45.9533 177.673 45.74 177.1 45.74ZM173.36 56.26H177.54C178.167 56.26 178.693 56.04 179.12 55.6C179.547 55.16 179.76 54.62 179.76 53.98C179.76 53.3533 179.54 52.82 179.1 52.38C178.687 51.94 178.167 51.72 177.54 51.72H173.36V56.26ZM185.365 51.6H187.845C188.845 51.6 189.671 51.9 190.325 52.5C190.991 53.0867 191.325 53.8533 191.325 54.8C191.325 55.7467 190.991 56.52 190.325 57.12C189.658 57.7067 188.831 58 187.845 58H183.625V48H185.365V51.6ZM192.625 58V48H194.365V58H192.625ZM185.365 56.38H187.845C188.351 56.38 188.771 56.2333 189.105 55.94C189.438 55.6467 189.605 55.2667 189.605 54.8C189.605 54.3333 189.431 53.9533 189.085 53.66C188.751 53.3533 188.338 53.2 187.845 53.2H185.365V56.38ZM197.023 48H205.683V58H203.943V49.66H198.763V58H197.023V48ZM216.772 56.74C215.758 57.7533 214.512 58.26 213.032 58.26C211.552 58.26 210.305 57.7533 209.292 56.74C208.278 55.7267 207.772 54.48 207.772 53C207.772 51.52 208.278 50.2733 209.292 49.26C210.305 48.2467 211.552 47.74 213.032 47.74C214.512 47.74 215.758 48.2467 216.772 49.26C217.798 50.2867 218.312 51.5333 218.312 53C218.312 54.4667 217.798 55.7133 216.772 56.74ZM213.032 56.56C214.032 56.56 214.872 56.22 215.552 55.54C216.232 54.86 216.572 54.0133 216.572 53C216.572 51.9867 216.232 51.14 215.552 50.46C214.872 49.78 214.032 49.44 213.032 49.44C212.045 49.44 211.212 49.78 210.532 50.46C209.852 51.14 209.512 51.9867 209.512 53C209.512 54.0133 209.852 54.86 210.532 55.54C211.212 56.22 212.045 56.56 213.032 56.56ZM220.931 48H228.351V58H226.611V49.68H222.671V53.76C222.671 55.36 222.351 56.5 221.711 57.18C221.071 57.8467 220.131 58.12 218.891 58V56.36C219.585 56.4533 220.098 56.3 220.431 55.9C220.765 55.4867 220.931 54.76 220.931 53.72V48ZM237.908 52.16V48H239.648V58H237.908V53.82H232.728V58H230.988V48H232.728V52.16H237.908ZM244.017 55.02L249.557 48H250.957V58H249.237V50.98L243.697 58H242.297V48H244.017V55.02ZM254.525 48H261.945V58H260.205V49.68H256.265V53.76C256.265 55.36 255.945 56.5 255.305 57.18C254.665 57.8467 253.725 58.12 252.485 58V56.36C253.178 56.4533 253.692 56.3 254.025 55.9C254.358 55.4867 254.525 54.76 254.525 53.72V48ZM266.302 55.02L271.842 48H273.242V58H271.522V50.98L265.982 58H264.582V48H266.302V55.02ZM285.43 58.26C283.95 58.26 282.73 57.7733 281.77 56.8C280.81 55.8133 280.33 54.56 280.33 53.04C280.33 51.32 280.577 50.0067 281.07 49.1C281.577 48.18 282.604 47.3467 284.15 46.6C284.23 46.56 284.324 46.5133 284.43 46.46C284.55 46.4067 284.69 46.3467 284.85 46.28C285.024 46.2 285.17 46.1333 285.29 46.08L286.37 45.6C287.437 45.0667 288.004 44.4267 288.07 43.68L289.47 44.48C289.377 44.9467 289.224 45.32 289.01 45.6C288.997 45.6267 288.957 45.6867 288.89 45.78C288.824 45.86 288.777 45.92 288.75 45.96C288.724 45.9867 288.677 46.0333 288.61 46.1C288.557 46.1533 288.497 46.2067 288.43 46.26C288.377 46.3133 288.304 46.3667 288.21 46.42C287.717 46.7267 287.364 46.9267 287.15 47.02C287.07 47.06 286.984 47.1 286.89 47.14C286.81 47.18 286.744 47.2133 286.69 47.24C286.637 47.2667 286.597 47.2867 286.57 47.3L285.91 47.58L285.27 47.84C284.377 48.2267 283.717 48.62 283.29 49.02C282.864 49.42 282.557 49.9267 282.37 50.54C282.784 50.0333 283.304 49.6467 283.93 49.38C284.57 49.1133 285.224 48.98 285.89 48.98C287.157 48.98 288.217 49.4067 289.07 50.26C289.95 51.1267 290.39 52.2267 290.39 53.56C290.39 54.92 289.924 56.0467 288.99 56.94C288.044 57.82 286.857 58.26 285.43 58.26ZM288.65 53.56C288.65 52.6667 288.357 51.94 287.77 51.38C287.197 50.8067 286.437 50.52 285.49 50.52C284.65 50.52 283.877 50.7933 283.17 51.34C282.49 51.8867 282.15 52.5933 282.15 53.46C282.15 54.3667 282.464 55.1133 283.09 55.7C283.717 56.2867 284.497 56.58 285.43 56.58C286.377 56.58 287.144 56.2933 287.73 55.72C288.344 55.1467 288.65 54.4267 288.65 53.56ZM300.678 56.74C299.665 57.7533 298.418 58.26 296.938 58.26C295.458 58.26 294.211 57.7533 293.198 56.74C292.185 55.7267 291.678 54.48 291.678 53C291.678 51.52 292.185 50.2733 293.198 49.26C294.211 48.2467 295.458 47.74 296.938 47.74C298.418 47.74 299.665 48.2467 300.678 49.26C301.705 50.2867 302.218 51.5333 302.218 53C302.218 54.4667 301.705 55.7133 300.678 56.74ZM296.938 56.56C297.938 56.56 298.778 56.22 299.458 55.54C300.138 54.86 300.478 54.0133 300.478 53C300.478 51.9867 300.138 51.14 299.458 50.46C298.778 49.78 297.938 49.44 296.938 49.44C295.951 49.44 295.118 49.78 294.438 50.46C293.758 51.14 293.418 51.9867 293.418 53C293.418 54.0133 293.758 54.86 294.438 55.54C295.118 56.22 295.951 56.56 296.938 56.56ZM304.838 48H312.258V58H310.518V49.68H306.578V53.76C306.578 55.36 306.258 56.5 305.618 57.18C304.978 57.8467 304.038 58.12 302.798 58V56.36C303.491 56.4533 304.004 56.3 304.338 55.9C304.671 55.4867 304.838 54.76 304.838 53.72V48ZM324.494 53.8H316.114C316.288 54.68 316.694 55.3733 317.334 55.88C317.974 56.3733 318.774 56.62 319.734 56.62C321.054 56.62 322.014 56.1333 322.614 55.16L324.094 56C323.108 57.5067 321.641 58.26 319.694 58.26C318.121 58.26 316.828 57.7667 315.814 56.78C314.828 55.7667 314.334 54.5067 314.334 53C314.334 51.48 314.821 50.2267 315.794 49.24C316.768 48.24 318.028 47.74 319.574 47.74C321.041 47.74 322.234 48.26 323.154 49.3C324.088 50.3133 324.554 51.5533 324.554 53.02C324.554 53.2733 324.534 53.5333 324.494 53.8ZM319.574 49.38C318.654 49.38 317.881 49.64 317.254 50.16C316.641 50.68 316.261 51.3867 316.114 52.28H322.794C322.648 51.36 322.281 50.6467 321.694 50.14C321.108 49.6333 320.401 49.38 319.574 49.38ZM336.135 53.8H327.755C327.928 54.68 328.335 55.3733 328.975 55.88C329.615 56.3733 330.415 56.62 331.375 56.62C332.695 56.62 333.655 56.1333 334.255 55.16L335.735 56C334.748 57.5067 333.282 58.26 331.335 58.26C329.762 58.26 328.468 57.7667 327.455 56.78C326.468 55.7667 325.975 54.5067 325.975 53C325.975 51.48 326.462 50.2267 327.435 49.24C328.408 48.24 329.668 47.74 331.215 47.74C332.682 47.74 333.875 48.26 334.795 49.3C335.728 50.3133 336.195 51.5533 336.195 53.02C336.195 53.2733 336.175 53.5333 336.135 53.8ZM331.215 49.38C330.295 49.38 329.522 49.64 328.895 50.16C328.282 50.68 327.902 51.3867 327.755 52.28H334.435C334.288 51.36 333.922 50.6467 333.335 50.14C332.748 49.6333 332.042 49.38 331.215 49.38ZM175.38 72.84C176.78 72.84 177.933 73.28 178.84 74.16C179.747 75.0267 180.2 76.1533 180.2 77.54C180.2 78.9267 179.747 80.06 178.84 80.94C177.933 81.82 176.78 82.26 175.38 82.26C173.953 82.26 172.793 81.82 171.9 80.94C171.007 80.06 170.56 78.9267 170.56 77.54C170.56 76.4467 170.84 75.5133 171.4 74.74L175.9 68H178.02L174.72 72.88C175.12 72.8533 175.34 72.84 175.38 72.84ZM175.38 74.62C174.487 74.62 173.767 74.8867 173.22 75.42C172.673 75.9533 172.4 76.66 172.4 77.54C172.4 78.42 172.673 79.1333 173.22 79.68C173.78 80.2133 174.5 80.48 175.38 80.48C176.26 80.48 176.973 80.2133 177.52 79.68C178.08 79.1333 178.36 78.42 178.36 77.54C178.36 76.66 178.08 75.9533 177.52 75.42C176.973 74.8867 176.26 74.62 175.38 74.62ZM191.042 80.28C190.108 81.6 188.782 82.26 187.062 82.26C185.342 82.26 184.015 81.6 183.082 80.28C182.135 78.9467 181.662 77.1867 181.662 75C181.662 72.8133 182.135 71.0533 183.082 69.72C184.015 68.4 185.342 67.74 187.062 67.74C188.782 67.74 190.108 68.4 191.042 69.72C191.988 71.0533 192.462 72.8133 192.462 75C192.462 77.1867 191.988 78.9467 191.042 80.28ZM183.522 75C183.522 76.7333 183.828 78.0733 184.442 79.02C185.055 79.9667 185.928 80.44 187.062 80.44C188.195 80.44 189.068 79.9667 189.682 79.02C190.308 78.0733 190.622 76.7333 190.622 75C190.622 73.2667 190.308 71.9267 189.682 70.98C189.068 70.02 188.195 69.54 187.062 69.54C185.928 69.54 185.055 70.0133 184.442 70.96C183.828 71.9067 183.522 73.2533 183.522 75ZM203.639 80.28C202.706 81.6 201.379 82.26 199.659 82.26C197.939 82.26 196.613 81.6 195.679 80.28C194.733 78.9467 194.259 77.1867 194.259 75C194.259 72.8133 194.733 71.0533 195.679 69.72C196.613 68.4 197.939 67.74 199.659 67.74C201.379 67.74 202.706 68.4 203.639 69.72C204.586 71.0533 205.059 72.8133 205.059 75C205.059 77.1867 204.586 78.9467 203.639 80.28ZM196.119 75C196.119 76.7333 196.426 78.0733 197.039 79.02C197.653 79.9667 198.526 80.44 199.659 80.44C200.793 80.44 201.666 79.9667 202.279 79.02C202.906 78.0733 203.219 76.7333 203.219 75C203.219 73.2667 202.906 71.9267 202.279 70.98C201.666 70.02 200.793 69.54 199.659 69.54C198.526 69.54 197.653 70.0133 197.039 70.96C196.426 71.9067 196.119 73.2533 196.119 75ZM212.237 74.16H215.717V75.82H212.237V79.3H210.577V75.82H207.117V74.16H210.577V70.7H212.237V74.16ZM231.615 80.74C230.602 81.7533 229.355 82.26 227.875 82.26C226.395 82.26 225.149 81.7533 224.135 80.74C223.122 79.7267 222.615 78.48 222.615 77C222.615 75.52 223.122 74.2733 224.135 73.26C225.149 72.2467 226.395 71.74 227.875 71.74C229.355 71.74 230.602 72.2467 231.615 73.26C232.642 74.2867 233.155 75.5333 233.155 77C233.155 78.4667 232.642 79.7133 231.615 80.74ZM227.875 80.56C228.875 80.56 229.715 80.22 230.395 79.54C231.075 78.86 231.415 78.0133 231.415 77C231.415 75.9867 231.075 75.14 230.395 74.46C229.715 73.78 228.875 73.44 227.875 73.44C226.889 73.44 226.055 73.78 225.375 74.46C224.695 75.14 224.355 75.9867 224.355 77C224.355 78.0133 224.695 78.86 225.375 79.54C226.055 80.22 226.889 80.56 227.875 80.56ZM239.747 82.26C238.267 82.26 237.047 81.7733 236.087 80.8C235.127 79.8133 234.647 78.56 234.647 77.04C234.647 75.32 234.893 74.0067 235.387 73.1C235.893 72.18 236.92 71.3467 238.467 70.6C238.547 70.56 238.64 70.5133 238.747 70.46C238.867 70.4067 239.007 70.3467 239.167 70.28C239.34 70.2 239.487 70.1333 239.607 70.08L240.687 69.6C241.753 69.0667 242.32 68.4267 242.387 67.68L243.787 68.48C243.693 68.9467 243.54 69.32 243.327 69.6C243.313 69.6267 243.273 69.6867 243.207 69.78C243.14 69.86 243.093 69.92 243.067 69.96C243.04 69.9867 242.993 70.0333 242.927 70.1C242.873 70.1533 242.813 70.2067 242.747 70.26C242.693 70.3133 242.62 70.3667 242.527 70.42C242.033 70.7267 241.68 70.9267 241.467 71.02C241.387 71.06 241.3 71.1 241.207 71.14C241.127 71.18 241.06 71.2133 241.007 71.24C240.953 71.2667 240.913 71.2867 240.887 71.3L240.227 71.58L239.587 71.84C238.693 72.2267 238.033 72.62 237.607 73.02C237.18 73.42 236.873 73.9267 236.687 74.54C237.1 74.0333 237.62 73.6467 238.247 73.38C238.887 73.1133 239.54 72.98 240.207 72.98C241.473 72.98 242.533 73.4067 243.387 74.26C244.267 75.1267 244.707 76.2267 244.707 77.56C244.707 78.92 244.24 80.0467 243.307 80.94C242.36 81.82 241.173 82.26 239.747 82.26ZM242.967 77.56C242.967 76.6667 242.673 75.94 242.087 75.38C241.513 74.8067 240.753 74.52 239.807 74.52C238.967 74.52 238.193 74.7933 237.487 75.34C236.807 75.8867 236.467 76.5933 236.467 77.46C236.467 78.3667 236.78 79.1133 237.407 79.7C238.033 80.2867 238.813 80.58 239.747 80.58C240.693 80.58 241.46 80.2933 242.047 79.72C242.66 79.1467 242.967 78.4267 242.967 77.56ZM249.364 75.6H251.844C252.83 75.6 253.657 75.9 254.324 76.5C254.99 77.1 255.324 77.8667 255.324 78.8C255.324 79.7333 254.99 80.5 254.324 81.1C253.657 81.7 252.83 82 251.844 82H247.624V73.68H244.844V72H249.364V75.6ZM249.364 80.38H251.844C252.35 80.38 252.77 80.2333 253.104 79.94C253.437 79.6467 253.604 79.2667 253.604 78.8C253.604 78.3333 253.43 77.9533 253.084 77.66C252.75 77.3533 252.337 77.2 251.844 77.2H249.364V80.38ZM266.682 77.8H258.302C258.475 78.68 258.882 79.3733 259.522 79.88C260.162 80.3733 260.962 80.62 261.922 80.62C263.242 80.62 264.202 80.1333 264.802 79.16L266.282 80C265.295 81.5067 263.828 82.26 261.882 82.26C260.308 82.26 259.015 81.7667 258.002 80.78C257.015 79.7667 256.522 78.5067 256.522 77C256.522 75.48 257.008 74.2267 257.982 73.24C258.955 72.24 260.215 71.74 261.762 71.74C263.228 71.74 264.422 72.26 265.342 73.3C266.275 74.3133 266.742 75.5533 266.742 77.02C266.742 77.2733 266.722 77.5333 266.682 77.8ZM261.762 73.38C260.842 73.38 260.068 73.64 259.442 74.16C258.828 74.68 258.448 75.3867 258.302 76.28H264.982C264.835 75.36 264.468 74.6467 263.882 74.14C263.295 73.6333 262.588 73.38 261.762 73.38ZM272.262 76.84L277.202 82H275.042L270.482 77.26V82H268.742V72H270.482V76.42L274.802 72H277.042L272.262 76.84ZM277.7 72H286.26V73.68H282.86V82H281.12V73.68H277.7V72ZM295.834 80.74C294.821 81.7533 293.574 82.26 292.094 82.26C290.614 82.26 289.368 81.7533 288.354 80.74C287.341 79.7267 286.834 78.48 286.834 77C286.834 75.52 287.341 74.2733 288.354 73.26C289.368 72.2467 290.614 71.74 292.094 71.74C293.574 71.74 294.821 72.2467 295.834 73.26C296.861 74.2867 297.374 75.5333 297.374 77C297.374 78.4667 296.861 79.7133 295.834 80.74ZM292.094 80.56C293.094 80.56 293.934 80.22 294.614 79.54C295.294 78.86 295.634 78.0133 295.634 77C295.634 75.9867 295.294 75.14 294.614 74.46C293.934 73.78 293.094 73.44 292.094 73.44C291.108 73.44 290.274 73.78 289.594 74.46C288.914 75.14 288.574 75.9867 288.574 77C288.574 78.0133 288.914 78.86 289.594 79.54C290.274 80.22 291.108 80.56 292.094 80.56ZM306.085 76.86C307.112 77.2867 307.625 78.06 307.625 79.18C307.625 80.0333 307.345 80.72 306.785 81.24C306.225 81.7467 305.439 82 304.425 82H299.425V72H304.025C305.012 72 305.779 72.2467 306.325 72.74C306.885 73.2333 307.165 73.8933 307.165 74.72C307.165 75.68 306.805 76.3933 306.085 76.86ZM303.945 73.56H301.125V76.18H303.945C304.959 76.18 305.465 75.7333 305.465 74.84C305.465 73.9867 304.959 73.56 303.945 73.56ZM301.125 80.42H304.325C304.832 80.42 305.219 80.3 305.485 80.06C305.765 79.82 305.905 79.48 305.905 79.04C305.905 78.6267 305.765 78.3067 305.485 78.08C305.219 77.84 304.832 77.72 304.325 77.72H301.125V80.42Z" fill="#1E1E1E"/>
</g>
<defs>
<filter id="filter0_d_3_18" x="0" y="0" width="440" height="140" filterUnits="userSpaceOnUse" color-interpolation-filters="sRGB">
<feFlood flood-opacity="0" result="BackgroundImageFix"/>
<feColorMatrix in="SourceAlpha" type="matrix" values="0 0 0 0 0 0 0 0 0 0 0 0 0 0 0 0 0 0 127 0" result="hardAlpha"/>
<feOffset dy="5"/>
<feGaussianBlur stdDeviation="10"/>
<feComposite in2="hardAlpha" operator="out"/>
<feColorMatrix type="matrix" values="0 0 0 0 0.839216 0 0 0 0 0.858824 0 0 0 0 0.882353 0 0 0 0.2 0"/>
<feBlend mode="normal" in2="BackgroundImageFix" result="effect1_dropShadow_3_18"/>
<feBlend mode="normal" in="SourceGraphic" in2="effect1_dropShadow_3_18" result="shape"/>
</filter>
<linearGradient id="paint0_linear_3_18" x1="390" y1="54" x2="390" y2="73" gradientUnits="userSpaceOnUse">
<stop stop-color="#F73454"/>
<stop offset="1" stop-color="#CD223E"/>
</linearGradient>
</defs>
</svg>
