<svg width="140" height="140" viewBox="0 0 140 140" fill="none" xmlns="http://www.w3.org/2000/svg">
<circle cx="70" cy="70" r="66.5" fill="#F73555" stroke="#CE233F" stroke-width="7"/>
<path d="M64.9219 73.7296L54.3656 72.9342L48.2317 81.1937C55.5404 87.6666 62.8483 94.1386 70.157 100.611L72.0413 99.5151L67.2021 94.1998C65.6825 92.5297 68.2249 90.218 69.7437 91.8873L75.0813 97.7491L78.3297 95.8624L73.4393 90.8952C71.8561 89.2854 74.3042 86.8787 75.8866 88.4884L81.3938 94.0816L85.2466 91.8435C81.1036 88.2214 76.9606 84.6001 72.8176 80.978L67.6362 85.6583C67.0029 86.2313 66.0579 86.2429 65.413 85.7228L60.3597 81.8825C59.5553 81.2723 59.4693 80.1768 60.0935 79.4038L64.9219 73.7296ZM53.1205 51.9523C51.7422 50.1672 54.459 48.0697 55.8372 49.8539L58.7351 53.6215L66.8921 44.6667C68.4109 42.9974 70.9524 45.3099 69.4336 46.98L59.8951 57.4487C59.1783 58.2333 57.9224 58.1911 57.2667 57.3428L53.1205 51.9523ZM61.3204 35.568C69.8759 35.568 76.8109 42.503 76.8109 51.0585C76.8109 59.614 69.8759 66.549 61.3204 66.549C52.7658 66.549 45.8299 59.614 45.8299 51.0585C45.8299 42.503 52.7658 35.568 61.3204 35.568ZM61.3204 39.0107C54.6665 39.0107 49.2726 44.4046 49.2726 51.0585C49.2726 57.7132 54.6665 63.1063 61.3204 63.1063C67.9752 63.1063 73.3691 57.7124 73.3691 51.0585C73.3691 44.4046 67.9752 39.0107 61.3204 39.0107ZM84.08 64.5805C81.8154 64.5805 81.8154 61.1378 84.08 61.1378H92.1659C94.4296 61.1378 94.4296 64.5805 92.1659 64.5805H84.08ZM82.7613 59.3362C80.5761 59.9199 79.689 56.5987 81.8733 56.015L92.3734 53.2015C94.5577 52.6178 95.4449 55.9398 93.2605 56.5227L82.7613 59.3362ZM70.8085 104.201C70.1876 104.561 69.3799 104.503 68.8127 104.001L67.5833 102.912L50.0167 96.4875C49.1966 96.1907 48.7203 95.3143 48.9403 94.452L50.6236 87.8931L44.8287 82.7613C44.1243 82.1851 43.9903 81.1508 44.5377 80.4116L52.1101 70.2158C52.44 69.7048 53.032 69.3857 53.6818 69.4345L68.4051 70.5432L85.3483 68.7284C85.9733 68.6623 86.5554 68.9401 86.9067 69.4097L95.4151 79.842C95.993 80.5522 95.9079 81.5856 95.239 82.1941L87.5012 89.2573L89.2399 90.7769C90.1833 91.5194 90.0964 92.9993 89.0382 93.6128C82.9622 97.1423 76.8862 100.673 70.8085 104.201ZM53.5074 90.447L52.6475 93.7963L60.5532 96.6867L53.5074 90.447ZM84.8977 86.9812L91.7269 80.7498L84.7885 72.243L69.284 73.904L63.8768 80.2512L66.3919 82.1636L71.5956 77.4633C72.2289 76.8366 73.2492 76.7978 73.9296 77.393L84.8977 86.9812Z" fill="white"/>
</svg>
