<svg width="440" height="140" viewBox="0 0 440 140" fill="none" xmlns="http://www.w3.org/2000/svg">
<g filter="url(#filter0_d_3_19)">
<rect x="20" y="15" width="400" height="100" rx="50" fill="white"/>
<path d="M370 105C375.253 105 380.454 103.965 385.307 101.955C390.16 99.945 394.57 96.9986 398.284 93.2843C401.999 89.5699 404.945 85.1604 406.955 80.3073C408.965 75.4543 410 70.2529 410 65C410 59.7471 408.965 54.5457 406.955 49.6927C404.945 44.8396 401.999 40.4301 398.284 36.7157C394.57 33.0014 390.16 30.055 385.307 28.0448C380.454 26.0346 375.253 25 370 25L370 65V105Z" fill="url(#paint0_linear_3_19)"/>
<path d="M171.5 44H181.66V58H179.8V45.76H173.36V58H171.5V44ZM190.004 47.74C191.404 47.74 192.597 48.2533 193.584 49.28C194.571 50.3067 195.064 51.5467 195.064 53C195.064 54.4667 194.571 55.7133 193.584 56.74C192.611 57.7533 191.417 58.26 190.004 58.26C188.351 58.26 187.091 57.6 186.224 56.28V62H184.484V48H186.224V49.72C187.091 48.4 188.351 47.74 190.004 47.74ZM189.784 56.58C190.784 56.58 191.624 56.24 192.304 55.56C192.984 54.8533 193.324 54 193.324 53C193.324 51.9867 192.984 51.14 192.304 50.46C191.624 49.7667 190.784 49.42 189.784 49.42C188.771 49.42 187.924 49.7667 187.244 50.46C186.564 51.14 186.224 51.9867 186.224 53C186.224 54 186.564 54.8533 187.244 55.56C187.924 56.24 188.771 56.58 189.784 56.58ZM205.58 56.74C204.567 57.7533 203.32 58.26 201.84 58.26C200.36 58.26 199.114 57.7533 198.1 56.74C197.087 55.7267 196.58 54.48 196.58 53C196.58 51.52 197.087 50.2733 198.1 49.26C199.114 48.2467 200.36 47.74 201.84 47.74C203.32 47.74 204.567 48.2467 205.58 49.26C206.607 50.2867 207.12 51.5333 207.12 53C207.12 54.4667 206.607 55.7133 205.58 56.74ZM201.84 56.56C202.84 56.56 203.68 56.22 204.36 55.54C205.04 54.86 205.38 54.0133 205.38 53C205.38 51.9867 205.04 51.14 204.36 50.46C203.68 49.78 202.84 49.44 201.84 49.44C200.854 49.44 200.02 49.78 199.34 50.46C198.66 51.14 198.32 51.9867 198.32 53C198.32 54.0133 198.66 54.86 199.34 55.54C200.02 56.22 200.854 56.56 201.84 56.56ZM217.381 48V56.34H218.761V60.68H217.041V58H209.541V60.68H207.821V56.34H209.041C209.681 55.46 210.001 54.2267 210.001 52.64V48H217.381ZM211.021 56.34H215.661V49.62H211.721V52.64C211.721 54.1067 211.488 55.34 211.021 56.34ZM228.526 49.72V48H230.266V58H228.526V56.28C227.672 57.6 226.412 58.26 224.746 58.26C223.332 58.26 222.139 57.7533 221.166 56.74C220.179 55.7133 219.686 54.4667 219.686 53C219.686 51.5467 220.179 50.3067 221.166 49.28C222.152 48.2533 223.346 47.74 224.746 47.74C226.412 47.74 227.672 48.4 228.526 49.72ZM224.966 56.58C225.979 56.58 226.826 56.24 227.506 55.56C228.186 54.8533 228.526 54 228.526 53C228.526 51.9867 228.186 51.14 227.506 50.46C226.826 49.7667 225.979 49.42 224.966 49.42C223.966 49.42 223.126 49.7667 222.446 50.46C221.766 51.14 221.426 51.9867 221.426 53C221.426 54 221.766 54.8533 222.446 55.56C223.126 56.24 223.966 56.58 224.966 56.58ZM236.302 46.36C236.102 46.56 235.855 46.66 235.562 46.66C235.269 46.66 235.015 46.56 234.802 46.36C234.602 46.1467 234.502 45.8933 234.502 45.6C234.502 45.3067 234.602 45.06 234.802 44.86C235.015 44.66 235.269 44.56 235.562 44.56C235.855 44.56 236.102 44.66 236.302 44.86C236.502 45.06 236.602 45.3067 236.602 45.6C236.602 45.8933 236.502 46.1467 236.302 46.36ZM240.102 46.36C239.902 46.56 239.655 46.66 239.362 46.66C239.069 46.66 238.815 46.56 238.602 46.36C238.402 46.1467 238.302 45.8933 238.302 45.6C238.302 45.3067 238.402 45.06 238.602 44.86C238.815 44.66 239.069 44.56 239.362 44.56C239.655 44.56 239.902 44.66 240.102 44.86C240.302 45.06 240.402 45.3067 240.402 45.6C240.402 45.8933 240.302 46.1467 240.102 46.36ZM242.502 53.8H234.122C234.295 54.68 234.702 55.3733 235.342 55.88C235.982 56.3733 236.782 56.62 237.742 56.62C239.062 56.62 240.022 56.1333 240.622 55.16L242.102 56C241.115 57.5067 239.649 58.26 237.702 58.26C236.129 58.26 234.835 57.7667 233.822 56.78C232.835 55.7667 232.342 54.5067 232.342 53C232.342 51.48 232.829 50.2267 233.802 49.24C234.775 48.24 236.035 47.74 237.582 47.74C239.049 47.74 240.242 48.26 241.162 49.3C242.095 50.3133 242.562 51.5533 242.562 53.02C242.562 53.2733 242.542 53.5333 242.502 53.8ZM237.582 49.38C236.662 49.38 235.889 49.64 235.262 50.16C234.649 50.68 234.269 51.3867 234.122 52.28H240.802C240.655 51.36 240.289 50.6467 239.702 50.14C239.115 49.6333 238.409 49.38 237.582 49.38ZM252.702 48H254.562V58H252.862V50.74L249.682 55.86H249.462L246.282 50.74V58H244.562V48H246.422L249.562 53.06L252.702 48ZM262.218 48H270.878V58H269.138V49.66H263.958V58H262.218V48ZM281.967 56.74C280.954 57.7533 279.707 58.26 278.227 58.26C276.747 58.26 275.5 57.7533 274.487 56.74C273.474 55.7267 272.967 54.48 272.967 53C272.967 51.52 273.474 50.2733 274.487 49.26C275.5 48.2467 276.747 47.74 278.227 47.74C279.707 47.74 280.954 48.2467 281.967 49.26C282.994 50.2867 283.507 51.5333 283.507 53C283.507 54.4667 282.994 55.7133 281.967 56.74ZM278.227 56.56C279.227 56.56 280.067 56.22 280.747 55.54C281.427 54.86 281.767 54.0133 281.767 53C281.767 51.9867 281.427 51.14 280.747 50.46C280.067 49.78 279.227 49.44 278.227 49.44C277.24 49.44 276.407 49.78 275.727 50.46C275.047 51.14 274.707 51.9867 274.707 53C274.707 54.0133 275.047 54.86 275.727 55.54C276.407 56.22 277.24 56.56 278.227 56.56ZM298.958 48V56.34H300.598V60.68H298.878V58H290.558V48H292.298V56.34H297.218V48H298.958ZM311.662 53.8H303.282C303.456 54.68 303.862 55.3733 304.502 55.88C305.142 56.3733 305.942 56.62 306.902 56.62C308.222 56.62 309.182 56.1333 309.782 55.16L311.262 56C310.276 57.5067 308.809 58.26 306.862 58.26C305.289 58.26 303.996 57.7667 302.982 56.78C301.996 55.7667 301.502 54.5067 301.502 53C301.502 51.48 301.989 50.2267 302.962 49.24C303.936 48.24 305.196 47.74 306.742 47.74C308.209 47.74 309.402 48.26 310.322 49.3C311.256 50.3133 311.722 51.5533 311.722 53.02C311.722 53.2733 311.702 53.5333 311.662 53.8ZM306.742 49.38C305.822 49.38 305.049 49.64 304.422 50.16C303.809 50.68 303.429 51.3867 303.282 52.28H309.962C309.816 51.36 309.449 50.6467 308.862 50.14C308.276 49.6333 307.569 49.38 306.742 49.38ZM320.642 52.16V48H322.382V58H320.642V53.82H315.462V58H313.722V48H315.462V52.16H320.642ZM334.631 53.8H326.251C326.424 54.68 326.831 55.3733 327.471 55.88C328.111 56.3733 328.911 56.62 329.871 56.62C331.191 56.62 332.151 56.1333 332.751 55.16L334.231 56C333.244 57.5067 331.778 58.26 329.831 58.26C328.258 58.26 326.964 57.7667 325.951 56.78C324.964 55.7667 324.471 54.5067 324.471 53C324.471 51.48 324.958 50.2267 325.931 49.24C326.904 48.24 328.164 47.74 329.711 47.74C331.178 47.74 332.371 48.26 333.291 49.3C334.224 50.3133 334.691 51.5533 334.691 53.02C334.691 53.2733 334.671 53.5333 334.631 53.8ZM329.711 49.38C328.791 49.38 328.018 49.64 327.391 50.16C326.778 50.68 326.398 51.3867 326.251 52.28H332.931C332.784 51.36 332.418 50.6467 331.831 50.14C331.244 49.6333 330.538 49.38 329.711 49.38ZM171.32 72H179.98V82H178.24V73.66H173.06V82H171.32V72ZM188.149 71.74C189.549 71.74 190.742 72.2533 191.729 73.28C192.715 74.3067 193.209 75.5467 193.209 77C193.209 78.4667 192.715 79.7133 191.729 80.74C190.755 81.7533 189.562 82.26 188.149 82.26C186.495 82.26 185.235 81.6 184.369 80.28V86H182.629V72H184.369V73.72C185.235 72.4 186.495 71.74 188.149 71.74ZM187.929 80.58C188.929 80.58 189.769 80.24 190.449 79.56C191.129 78.8533 191.469 78 191.469 77C191.469 75.9867 191.129 75.14 190.449 74.46C189.769 73.7667 188.929 73.42 187.929 73.42C186.915 73.42 186.069 73.7667 185.389 74.46C184.709 75.14 184.369 75.9867 184.369 77C184.369 78 184.709 78.8533 185.389 79.56C186.069 80.24 186.915 80.58 187.929 80.58ZM203.725 80.74C202.712 81.7533 201.465 82.26 199.985 82.26C198.505 82.26 197.258 81.7533 196.245 80.74C195.232 79.7267 194.725 78.48 194.725 77C194.725 75.52 195.232 74.2733 196.245 73.26C197.258 72.2467 198.505 71.74 199.985 71.74C201.465 71.74 202.712 72.2467 203.725 73.26C204.752 74.2867 205.265 75.5333 205.265 77C205.265 78.4667 204.752 79.7133 203.725 80.74ZM199.985 80.56C200.985 80.56 201.825 80.22 202.505 79.54C203.185 78.86 203.525 78.0133 203.525 77C203.525 75.9867 203.185 75.14 202.505 74.46C201.825 73.78 200.985 73.44 199.985 73.44C198.998 73.44 198.165 73.78 197.485 74.46C196.805 75.14 196.465 75.9867 196.465 77C196.465 78.0133 196.805 78.86 197.485 79.54C198.165 80.22 198.998 80.56 199.985 80.56ZM209.036 79.02L214.576 72H215.976V82H214.256V74.98L208.716 82H207.316V72H209.036V79.02ZM224.025 76.88C225.131 77.3467 225.685 78.14 225.685 79.26C225.685 80.1267 225.345 80.8467 224.665 81.42C223.985 81.98 223.045 82.26 221.845 82.26C219.845 82.26 218.505 81.46 217.825 79.86L219.285 79C219.658 80.0933 220.518 80.64 221.865 80.64C222.518 80.64 223.031 80.5 223.405 80.22C223.778 79.94 223.965 79.5667 223.965 79.1C223.965 78.7 223.811 78.3733 223.505 78.12C223.211 77.8667 222.811 77.74 222.305 77.74H220.845V76.16H221.925C222.431 76.16 222.825 76.04 223.105 75.8C223.385 75.5467 223.525 75.2067 223.525 74.78C223.525 74.34 223.358 73.9933 223.025 73.74C222.691 73.4733 222.245 73.34 221.685 73.34C220.565 73.34 219.805 73.8133 219.405 74.76L217.985 73.94C218.691 72.4733 219.925 71.74 221.685 71.74C222.751 71.74 223.605 72.02 224.245 72.58C224.898 73.1267 225.225 73.8133 225.225 74.64C225.225 75.6533 224.825 76.4 224.025 76.88ZM234.23 76.86C235.257 77.2867 235.77 78.06 235.77 79.18C235.77 80.0333 235.49 80.72 234.93 81.24C234.37 81.7467 233.583 82 232.57 82H227.57V72H232.17C233.157 72 233.923 72.2467 234.47 72.74C235.03 73.2333 235.31 73.8933 235.31 74.72C235.31 75.68 234.95 76.3933 234.23 76.86ZM232.09 73.56H229.27V76.18H232.09C233.103 76.18 233.61 75.7333 233.61 74.84C233.61 73.9867 233.103 73.56 232.09 73.56ZM229.27 80.42H232.47C232.977 80.42 233.363 80.3 233.63 80.06C233.91 79.82 234.05 79.48 234.05 79.04C234.05 78.6267 233.91 78.3067 233.63 78.08C233.363 77.84 232.977 77.72 232.47 77.72H229.27V80.42ZM246.088 80.74C245.075 81.7533 243.828 82.26 242.348 82.26C240.868 82.26 239.621 81.7533 238.608 80.74C237.595 79.7267 237.088 78.48 237.088 77C237.088 75.52 237.595 74.2733 238.608 73.26C239.621 72.2467 240.868 71.74 242.348 71.74C243.828 71.74 245.075 72.2467 246.088 73.26C247.115 74.2867 247.628 75.5333 247.628 77C247.628 78.4667 247.115 79.7133 246.088 80.74ZM242.348 80.56C243.348 80.56 244.188 80.22 244.868 79.54C245.548 78.86 245.888 78.0133 245.888 77C245.888 75.9867 245.548 75.14 244.868 74.46C244.188 73.78 243.348 73.44 242.348 73.44C241.361 73.44 240.528 73.78 239.848 74.46C239.168 75.14 238.828 75.9867 238.828 77C238.828 78.0133 239.168 78.86 239.848 79.54C240.528 80.22 241.361 80.56 242.348 80.56ZM257.889 72V80.34H259.269V84.68H257.549V82H250.049V84.68H248.329V80.34H249.549C250.189 79.46 250.509 78.2267 250.509 76.64V72H257.889ZM251.529 80.34H256.169V73.62H252.229V76.64C252.229 78.1067 251.995 79.34 251.529 80.34ZM262.864 79.02L268.404 72H269.804V82H268.084V74.98L262.544 82H261.144V72H262.864V79.02ZM271.333 72H279.893V73.68H276.493V82H274.753V73.68H271.333V72ZM290.627 77.8H282.247C282.42 78.68 282.827 79.3733 283.467 79.88C284.107 80.3733 284.907 80.62 285.867 80.62C287.187 80.62 288.147 80.1333 288.747 79.16L290.227 80C289.24 81.5067 287.774 82.26 285.827 82.26C284.254 82.26 282.96 81.7667 281.947 80.78C280.96 79.7667 280.467 78.5067 280.467 77C280.467 75.48 280.954 74.2267 281.927 73.24C282.9 72.24 284.16 71.74 285.707 71.74C287.174 71.74 288.367 72.26 289.287 73.3C290.22 74.3133 290.687 75.5533 290.687 77.02C290.687 77.2733 290.667 77.5333 290.627 77.8ZM285.707 73.38C284.787 73.38 284.014 73.64 283.387 74.16C282.774 74.68 282.394 75.3867 282.247 76.28H288.927C288.78 75.36 288.414 74.6467 287.827 74.14C287.24 73.6333 286.534 73.38 285.707 73.38ZM293.217 72H300.637V82H298.897V73.68H294.957V77.76C294.957 79.36 294.637 80.5 293.997 81.18C293.357 81.8467 292.417 82.12 291.177 82V80.36C291.87 80.4533 292.383 80.3 292.717 79.9C293.05 79.4867 293.217 78.76 293.217 77.72V72ZM306.493 72H310.753V82H309.033V78.4H307.573L304.773 82H302.653L305.573 78.3C304.813 78.1133 304.2 77.74 303.733 77.18C303.28 76.62 303.053 75.9667 303.053 75.22C303.053 74.3 303.38 73.5333 304.033 72.92C304.686 72.3067 305.506 72 306.493 72ZM306.553 76.84H309.033V73.62H306.553C306.046 73.62 305.62 73.7733 305.273 74.08C304.94 74.3733 304.773 74.76 304.773 75.24C304.773 75.7067 304.94 76.0933 305.273 76.4C305.62 76.6933 306.046 76.84 306.553 76.84Z" fill="#1E1E1E"/>
</g>
<defs>
<filter id="filter0_d_3_19" x="0" y="0" width="440" height="140" filterUnits="userSpaceOnUse" color-interpolation-filters="sRGB">
<feFlood flood-opacity="0" result="BackgroundImageFix"/>
<feColorMatrix in="SourceAlpha" type="matrix" values="0 0 0 0 0 0 0 0 0 0 0 0 0 0 0 0 0 0 127 0" result="hardAlpha"/>
<feOffset dy="5"/>
<feGaussianBlur stdDeviation="10"/>
<feComposite in2="hardAlpha" operator="out"/>
<feColorMatrix type="matrix" values="0 0 0 0 0.839216 0 0 0 0 0.858824 0 0 0 0 0.882353 0 0 0 0.2 0"/>
<feBlend mode="normal" in2="BackgroundImageFix" result="effect1_dropShadow_3_19"/>
<feBlend mode="normal" in="SourceGraphic" in2="effect1_dropShadow_3_19" result="shape"/>
</filter>
<linearGradient id="paint0_linear_3_19" x1="390" y1="57.5" x2="390" y2="73" gradientUnits="userSpaceOnUse">
<stop stop-color="#0590DE"/>
<stop offset="1" stop-color="#0B77B4"/>
</linearGradient>
</defs>
</svg>
