<svg width="140" height="140" viewBox="0 0 140 140" fill="none" xmlns="http://www.w3.org/2000/svg">
<circle cx="70" cy="70" r="66.5" fill="#0590DF" stroke="#0C78B4" stroke-width="7"/>
<path d="M69.7223 45.5128C65.5241 45.5128 61.326 47.1454 58.1774 50.294C55.0288 53.4426 53.3962 57.6407 53.3962 61.8388C53.3962 66.037 55.0288 70.2351 58.1774 73.3837C61.326 76.5323 65.5241 78.1649 69.7223 78.1649C73.9204 78.1649 78.1185 76.5323 81.2671 73.3837C84.4157 70.2351 86.0483 66.037 86.0483 61.8388C86.0483 57.6407 84.4157 53.4426 81.2671 50.294C78.1185 47.1454 73.9204 45.5128 69.7223 45.5128ZM79.6345 71.7511C76.9524 74.4332 73.3373 75.8326 69.7223 75.8326C66.1072 75.8326 62.6088 74.4332 59.81 71.7511C57.1279 69.0689 55.7285 65.4539 55.7285 61.8388C55.7285 58.2238 57.1279 54.7254 59.81 51.9266C62.4922 49.2445 66.1072 47.8451 69.7223 47.8451C73.3373 47.8451 76.8358 49.2445 79.6345 51.9266C82.3166 54.6087 83.716 58.2238 83.716 61.8388C83.716 65.4539 82.3166 68.9523 79.6345 71.7511Z" fill="white"/>
<path d="M66.6903 62.4219L62.3755 58.1072L61.5592 58.9235L58.0608 62.6551L66.8069 71.4012L81.2671 56.941L76.7191 52.3931L66.6903 62.4219ZM66.8069 68.136L61.326 62.6551L62.4921 61.3724L66.8069 65.6871L76.8357 55.6583L78.1185 56.941L66.8069 68.136Z" fill="white"/>
<path d="M94.5612 59.0401C94.4446 58.3405 94.2113 57.874 93.9781 57.2909C93.5116 56.5912 92.9286 56.0082 92.5787 55.4251C92.1123 54.9586 91.7624 54.3756 91.6458 54.0257C91.5292 53.7925 91.5292 53.4426 91.5292 52.9762C91.5292 52.3931 91.5292 51.81 91.5292 51.1104C91.5292 50.2941 91.4126 49.3611 90.9461 48.4282C90.5963 47.8451 90.1298 47.4953 89.6634 47.1455C88.9637 46.679 88.264 46.4458 87.5643 46.0959C86.9812 45.8627 86.3982 45.5129 86.1649 45.2796C85.8151 44.9298 85.4652 44.1135 84.9988 43.1806C84.7655 42.7141 84.5323 42.2477 84.2991 41.7812C83.9492 41.3147 83.5994 40.8483 83.0163 40.4984C82.2 40.032 81.2671 40.032 80.3342 40.032C79.6345 40.032 79.0514 40.032 78.4684 40.032C78.0019 40.032 77.6521 40.032 77.4188 39.9154C76.9524 39.7987 76.2527 39.2157 75.553 38.516C75.2032 38.1661 74.7367 37.8163 74.2702 37.5831C73.8038 37.2332 73.2207 37 72.521 37C72.4044 37 72.2878 37 72.1712 37C71.5881 37 71.005 37.1166 70.5386 37.3498C69.7223 37.5831 69.1392 37.9329 68.5561 38.2828C67.9731 38.6326 67.5066 38.7492 67.1568 38.8658H66.9235C66.4571 38.8658 65.874 38.7492 65.1743 38.516C64.4746 38.2828 63.6583 38.0495 62.7254 38.0495C62.3756 38.0495 61.9091 38.0495 61.4426 38.2828C60.8596 38.516 60.2765 38.8658 59.9267 39.2157C59.3436 39.7987 58.8771 40.4984 58.5273 41.0815C58.0608 41.6646 57.711 42.131 57.3611 42.2477C57.1279 42.3643 56.8947 42.4809 56.5448 42.4809C55.9618 42.5975 55.2621 42.7141 54.4458 42.9473C53.6295 43.1806 52.8132 43.4138 52.1135 44.1135C51.647 44.5799 51.4138 45.163 51.1806 45.6295C50.9473 46.4458 50.8307 47.2621 50.7141 47.9618C50.5975 48.6614 50.4809 49.2445 50.2477 49.4778C50.0144 49.9442 49.3147 50.4107 48.4984 50.9937C48.1486 51.3436 47.6821 51.5768 47.2157 52.0433C46.8658 52.3931 46.3994 52.9762 46.2828 53.5593C46.1661 54.0257 46.0495 54.3756 46.0495 54.842C46.0495 55.7749 46.2828 56.5912 46.516 57.2909C46.7492 57.9906 46.8658 58.6903 46.8658 59.0401V59.2734C46.8658 59.7398 46.516 60.4395 46.0495 61.2558C45.8163 61.7223 45.5831 62.0721 45.3498 62.6552C45.1166 63.1216 45 63.7047 45 64.2878C45 64.4044 45 64.521 45 64.6376C45.1166 65.3373 45.3498 65.8038 45.5831 66.3869C46.0495 67.0865 46.6326 67.6696 46.9824 68.2527C47.4489 68.7191 47.7987 69.3022 47.9154 69.6521C48.032 69.8853 48.032 70.2351 48.032 70.7016C48.032 71.2847 48.032 71.8677 48.032 72.5674C48.032 73.3837 48.1486 74.3166 48.615 75.2496C48.9649 75.8326 49.4314 76.1825 49.8978 76.5323C50.5975 76.9988 51.2972 77.232 51.9969 77.5818C52.5799 77.8151 53.163 78.1649 53.3962 78.3981C53.7461 78.748 54.0959 79.5643 54.5624 80.4972C54.7956 80.9637 55.0288 81.4301 55.2621 81.8966C55.6119 82.363 55.9618 82.8295 56.5448 83.1793C56.6615 83.296 56.8947 83.296 57.0113 83.4126L52.1135 97.9894L59.81 95.5405L64.4746 102.188L69.8389 86.2113C69.8389 86.2113 69.9555 86.2113 69.9555 86.0947L75.3198 102.071L79.9844 95.4239L87.6809 97.8728L82.2 81.5467L82.3166 81.4301C82.5499 81.3135 82.7831 81.1969 83.2496 81.0803C83.8326 80.9637 84.5323 80.847 85.3486 80.6138C86.1649 80.3806 86.9812 80.1474 87.6809 79.4477C88.1474 78.9812 88.3806 78.3981 88.6138 77.9317C88.8471 77.1154 88.9637 76.2991 89.0803 75.5994C89.1969 74.8997 89.3135 74.3166 89.5467 74.0834C89.78 73.617 90.4797 73.1505 91.296 72.5674C91.6458 72.2176 92.1123 71.9843 92.5787 71.5179C92.9286 71.168 93.395 70.585 93.5116 70.0019C93.6283 69.5354 93.7449 69.1856 93.7449 68.7191C93.7449 67.7862 93.5116 66.9699 93.2784 66.2702C93.0452 65.5706 92.9286 64.8709 92.9286 64.521V64.2878C92.9286 63.8213 93.2784 63.1216 93.7449 62.3053C93.9781 61.8389 94.2113 61.489 94.4446 60.906C94.6778 60.4395 94.7944 59.8564 94.7944 59.2734C94.6778 59.2734 94.5612 59.1568 94.5612 59.0401ZM63.5417 96.9398L60.6263 92.7417L55.7285 94.2577L59.3436 83.6458C59.9267 83.6458 60.6263 83.6458 61.0928 83.6458C61.5593 83.6458 61.9091 83.6458 62.1423 83.7624C62.6088 83.879 63.3085 84.4621 64.0082 85.1618C64.358 85.5116 64.8245 85.8615 65.2909 86.0947C65.7574 86.4445 66.3405 86.6778 67.0401 86.6778L63.5417 96.9398ZM78.8182 92.7417L75.9028 96.9398L71.938 85.0452C72.0546 85.0452 72.2878 84.9286 72.4044 84.9286H72.6376C73.1041 84.9286 73.6872 85.0452 74.3869 85.2784C75.0865 85.5116 75.9028 85.7449 76.8358 85.7449C77.1856 85.7449 77.6521 85.7449 78.1185 85.5116C78.7016 85.2784 79.2847 84.9286 79.6345 84.5787C79.8677 84.3455 80.101 83.9956 80.3342 83.7624L83.8326 94.3743L78.8182 92.7417ZM92.1123 60.2063C91.879 60.6727 91.6458 61.2558 91.296 61.9555C90.9461 62.6552 90.5963 63.3549 90.4797 64.1712C90.4797 64.2878 90.4797 64.521 90.4797 64.6376C90.4797 65.5706 90.7129 66.3869 90.9461 67.0865C91.1793 67.7862 91.296 68.4859 91.296 68.8358C91.296 69.069 91.296 69.1856 91.1793 69.3022C91.0627 69.5354 90.9461 69.6521 90.7129 69.8853C90.363 70.2351 89.78 70.7016 89.1969 71.0514C88.6138 71.5179 87.9141 71.9843 87.4477 72.8006C87.0978 73.2671 86.9812 73.8502 86.8646 74.3166C86.6314 75.1329 86.6314 75.8326 86.3982 76.4157C86.2815 76.9988 86.0483 77.4652 85.8151 77.6985C85.6985 77.8151 85.4652 77.9317 85.1154 78.0483C84.6489 78.2815 83.9492 78.2815 83.2496 78.5148C82.5499 78.6314 81.7336 78.8646 80.9173 79.3311C79.8677 80.0308 79.2847 80.9637 78.7016 81.6634C78.4684 82.0132 78.1185 82.363 77.8853 82.5963C77.6521 82.8295 77.4188 82.9461 77.3022 83.0627C77.1856 83.0627 77.069 83.1793 76.8358 83.1793C76.3693 83.1793 75.7862 83.0627 75.0865 82.8295C74.3869 82.5963 73.5706 82.363 72.6376 82.363C72.521 82.363 72.2878 82.363 72.1712 82.363C71.005 82.4797 70.0721 83.0627 69.2558 83.5292C68.906 83.7624 68.4395 83.879 68.2063 84.1123C67.8564 84.2289 67.6232 84.3455 67.39 84.3455H67.2734C67.0401 84.3455 66.8069 84.2289 66.5737 84.1123C66.1072 83.879 65.6408 83.4126 65.0577 82.8295C64.4746 82.363 63.7749 81.78 62.9586 81.5467C62.2589 81.3135 61.6759 81.3135 61.0928 81.3135C60.3931 81.3135 59.6934 81.4301 59.227 81.3135C58.5273 81.3135 58.0608 81.1969 57.8276 81.0803C57.711 80.9637 57.4778 80.847 57.3611 80.4972C57.1279 80.0308 56.7781 79.4477 56.5448 78.748C56.195 78.0483 55.8451 77.232 55.2621 76.6489C54.3292 75.8326 53.2796 75.3662 52.4633 75.0163C51.9969 74.7831 51.647 74.6665 51.4138 74.4333C51.1806 74.2 50.9473 74.0834 50.8307 73.9668C50.7141 73.7336 50.5975 73.2671 50.5975 72.5674C50.5975 71.9844 50.5975 71.4013 50.5975 70.7016C50.5975 70.1185 50.5975 69.5354 50.3643 68.8358C49.8978 67.6696 49.1981 66.8533 48.4984 66.1536C48.1486 65.8038 47.9154 65.4539 47.7987 65.2207C47.5655 64.8709 47.5655 64.6376 47.5655 64.521V64.4044C47.5655 64.1712 47.5655 63.938 47.7987 63.5881C48.032 63.1216 48.2652 62.5386 48.615 61.8389C48.9649 61.1392 49.3147 60.4395 49.4314 59.6232C49.4314 59.5066 49.4314 59.2734 49.4314 59.1568C49.4314 58.2238 49.1981 57.4075 48.9649 56.7078C48.7317 56.0082 48.615 55.3085 48.615 54.9586C48.615 54.7254 48.615 54.6088 48.7317 54.4922C48.8483 54.2589 48.9649 54.1423 49.1981 53.9091C49.548 53.5593 50.131 53.0928 50.7141 52.743C51.2972 52.2765 51.9969 51.81 52.4633 50.9937C52.8132 50.5273 52.9298 49.9442 53.0464 49.4778C53.2796 48.6615 53.2796 47.9618 53.5129 47.3787C53.6295 46.7956 53.8627 46.3292 54.0959 46.0959C54.2125 45.9793 54.4458 45.8627 54.7956 45.7461C55.2621 45.5129 55.9618 45.5129 56.6614 45.2796C57.3611 45.163 58.1774 44.9298 58.9937 44.4633C60.0433 43.7636 60.6263 42.8307 61.2094 42.131C61.4426 41.7812 61.7925 41.4314 62.0257 41.1981C62.2589 40.9649 62.4922 40.8483 62.6088 40.7317C62.7254 40.7317 62.842 40.615 63.0752 40.615C63.5417 40.615 64.1248 40.7317 64.8245 40.9649C65.5242 41.1981 66.3405 41.4314 67.2734 41.4314C67.39 41.4314 67.6232 41.4314 67.7398 41.4314C68.906 41.3147 69.8389 40.7317 70.6552 40.2652C71.005 40.032 71.4715 39.9154 71.7047 39.6821C72.0546 39.5655 72.2878 39.4489 72.521 39.4489H72.6376C72.8709 39.4489 73.1041 39.5655 73.3373 39.6821C73.8038 39.9154 74.2702 40.3818 74.8533 40.9649C75.4364 41.4314 76.1361 42.0144 76.9524 42.2477C77.3022 42.3643 77.8853 42.3643 78.4684 42.3643C79.1681 42.3643 79.8677 42.2477 80.3342 42.3643C81.0339 42.3643 81.5003 42.4809 81.7336 42.5975C81.8502 42.7141 82.0834 42.8307 82.2 43.1806C82.4333 43.647 82.7831 44.2301 83.0163 44.9298C83.3662 45.6295 83.716 46.4458 84.2991 47.0288C85.232 47.8451 86.2815 48.3116 87.0978 48.6614C87.5643 48.8947 87.9141 49.0113 88.1474 49.2445C88.3806 49.4778 88.6138 49.5944 88.7304 49.711C88.8471 49.9442 88.9637 50.4107 88.9637 51.1104C88.9637 51.6934 88.9637 52.2765 88.9637 52.9762C88.9637 53.5593 88.9637 54.1423 89.1969 54.842C89.6634 56.0082 90.363 56.8245 91.0627 57.5242C91.4126 57.874 91.6458 58.2238 91.7624 58.4571C91.9957 58.8069 91.9956 59.0401 91.9956 59.1568V59.2734C92.3455 59.6232 92.2289 59.8564 92.1123 60.2063Z" fill="white"/>
</svg>
