<svg width="545" height="668" viewBox="0 0 545 668" fill="none" xmlns="http://www.w3.org/2000/svg">
<circle cx="225" cy="327" r="225" fill="#FCD318" fill-opacity="0.5"/>
<circle cx="225" cy="327" r="175" fill="#EFF2F6"/>
<path fill-rule="evenodd" clip-rule="evenodd" d="M230.025 53.5462C226.444 53.4803 222.863 53.4849 219.284 53.5598L219.242 51.5602C222.847 51.4848 226.454 51.4802 230.062 51.5465L230.025 53.5462ZM251.469 54.7838C247.902 54.437 244.332 54.1606 240.759 53.9544L240.875 51.9577C244.473 52.1654 248.07 52.4438 251.663 52.7932L251.469 54.7838ZM208.551 53.9951C204.977 54.2105 201.407 54.496 197.844 54.8516L197.645 52.8615C201.234 52.5033 204.83 52.2157 208.431 51.9987L208.551 53.9951ZM267.452 56.8147C265.682 56.5367 263.911 56.2761 262.138 56.0331L262.409 54.0517C264.195 54.2964 265.98 54.5589 267.762 54.839C269.545 55.1191 271.324 55.4165 273.099 55.7313L272.75 57.7005C270.988 57.3881 269.222 57.0928 267.452 56.8147ZM187.178 56.1278C183.633 56.6228 180.096 57.1876 176.571 57.8219L176.217 55.8535C179.768 55.2145 183.33 54.6457 186.901 54.1471L187.178 56.1278ZM293.735 62.2781C290.272 61.3788 286.789 60.5469 283.287 59.7831L283.714 57.8291C287.241 58.5984 290.749 59.4364 294.238 60.3423L293.735 62.2781ZM166.038 59.9311C162.544 60.7025 159.063 61.543 155.597 62.4525L155.089 60.5179C158.581 59.6019 162.088 58.7552 165.607 57.9782L166.038 59.9311ZM314.297 68.4883C310.914 67.3196 307.507 66.217 304.077 65.1813L304.656 63.2667C308.11 64.31 311.542 65.4207 314.95 66.5979L314.297 68.4883ZM145.262 65.3817C143.551 65.9034 141.843 66.4423 140.14 66.9981L139.519 65.0968C141.235 64.5369 142.955 63.9942 144.679 63.4686L145.262 65.3817ZM334.308 76.293C331.026 74.8619 327.715 73.4954 324.379 72.1942L325.106 70.3309C328.467 71.6416 331.801 73.0181 335.107 74.4597L334.308 76.293ZM353.645 85.644C350.484 83.959 347.291 82.337 344.068 80.7786L344.939 78.9781C348.185 80.5479 351.401 82.1817 354.586 83.879L353.645 85.644ZM372.189 96.4836C369.168 94.555 366.112 92.6874 363.023 90.8816L364.032 89.155C367.144 90.9739 370.222 92.8552 373.265 94.798L372.189 96.4836ZM385.507 105.55C384.056 104.499 382.596 103.463 381.127 102.441L382.268 100.799C383.748 101.828 385.219 102.872 386.68 103.931C388.141 104.99 389.591 106.063 391.03 107.149L389.825 108.745C388.396 107.667 386.957 106.602 385.507 105.55ZM406.444 122.353C403.766 119.979 401.04 117.656 398.267 115.386L399.535 113.838C402.328 116.125 405.073 118.465 407.77 120.856L406.444 122.353ZM421.943 137.222C419.46 134.645 416.925 132.115 414.34 129.635L415.724 128.192C418.328 130.69 420.882 133.238 423.384 135.834L421.943 137.222ZM436.229 153.262C433.954 150.497 431.625 147.776 429.244 145.102L430.737 143.772C433.136 146.466 435.482 149.206 437.773 151.992L436.229 153.262ZM449.211 170.374C447.16 167.437 445.051 164.542 442.888 161.691L444.481 160.482C446.661 163.354 448.784 166.271 450.851 169.229L449.211 170.374ZM460.811 188.452C458.995 185.362 457.121 182.311 455.188 179.299L456.872 178.219C458.818 181.252 460.706 184.326 462.535 187.439L460.811 188.452ZM468.56 202.577C467.745 200.982 466.914 199.396 466.069 197.818L467.832 196.874C468.683 198.462 469.52 200.06 470.341 201.668C471.162 203.275 471.966 204.889 472.755 206.51L470.956 207.385C470.174 205.775 469.375 204.173 468.56 202.577ZM479.584 227.055C478.277 223.724 476.903 220.416 475.463 217.135L477.295 216.331C478.745 219.637 480.129 222.969 481.446 226.324L479.584 227.055ZM486.642 247.341C485.6 243.917 484.49 240.512 483.313 237.128L485.202 236.471C486.387 239.879 487.505 243.309 488.556 246.758L486.642 247.341ZM492.087 268.119C491.316 264.622 490.476 261.14 489.569 257.676L491.503 257.169C492.417 260.659 493.263 264.166 494.04 267.688L492.087 268.119ZM495.884 289.259C495.389 285.712 494.826 282.175 494.193 278.652L496.161 278.298C496.799 281.847 497.367 285.41 497.865 288.983L495.884 289.259ZM498.01 310.633C497.796 307.056 497.511 303.486 497.157 299.925L499.147 299.727C499.504 303.314 499.79 306.91 500.006 310.514L498.01 310.633ZM498.5 326.737C498.498 324.946 498.479 323.155 498.442 321.366L500.442 321.325C500.479 323.127 500.498 324.931 500.5 326.735C500.502 328.54 500.486 330.343 500.452 332.146L498.452 332.108C498.486 330.319 498.502 328.529 498.5 326.737ZM497.208 353.551C497.556 349.99 497.833 346.42 498.041 342.842L500.038 342.958C499.828 346.562 499.549 350.158 499.199 353.746L497.208 353.551ZM494.285 374.831C494.911 371.306 495.468 367.769 495.956 364.22L497.937 364.492C497.446 368.067 496.885 371.63 496.254 375.18L494.285 374.831ZM489.701 395.815C490.602 392.349 491.435 388.866 492.199 385.368L494.153 385.795C493.383 389.319 492.545 392.827 491.637 396.318L489.701 395.815ZM483.485 416.375C484.655 412.989 485.759 409.582 486.795 406.156L488.709 406.735C487.666 410.186 486.554 413.618 485.375 417.028L483.485 416.375ZM475.674 436.384C477.107 433.099 478.475 429.789 479.776 426.456L481.639 427.183C480.328 430.541 478.951 433.875 477.507 437.184L475.674 436.384ZM468.798 450.954C469.61 449.357 470.406 447.753 471.186 446.142L472.986 447.014C472.201 448.636 471.399 450.252 470.581 451.861C469.763 453.469 468.93 455.069 468.082 456.659L466.317 455.718C467.159 454.139 467.986 452.551 468.798 450.954ZM455.472 474.258C457.399 471.243 459.267 468.188 461.077 465.095L462.803 466.104C460.98 469.22 459.098 472.298 457.157 475.335L455.472 474.258ZM443.205 491.89C445.363 489.034 447.466 486.135 449.512 483.195L451.154 484.337C449.093 487.299 446.975 490.219 444.801 493.096L443.205 491.89ZM429.593 508.505C431.969 505.826 434.293 503.101 436.562 500.331L438.109 501.599C435.823 504.389 433.483 507.134 431.089 509.832L429.593 508.505ZM414.719 524C417.299 521.516 419.829 518.981 422.308 516.399L423.751 517.784C421.254 520.385 418.705 522.938 416.106 525.441L414.719 524ZM398.674 538.281C401.442 536.005 404.164 533.677 406.837 531.298L408.166 532.792C405.474 535.189 402.733 537.534 399.944 539.826L398.674 538.281ZM385.932 548.141C387.381 547.087 388.818 546.019 390.244 544.938L391.452 546.531C390.016 547.62 388.568 548.696 387.109 549.758C385.65 550.82 384.181 551.867 382.703 552.898L381.558 551.259C383.025 550.234 384.483 549.195 385.932 548.141ZM363.477 562.853C366.562 561.041 369.615 559.168 372.631 557.233L373.711 558.917C370.672 560.865 367.598 562.752 364.489 564.577L363.477 562.853ZM344.542 572.992C347.761 571.428 350.951 569.799 354.109 568.108L355.053 569.872C351.872 571.575 348.659 573.215 345.416 574.791L344.542 572.992ZM324.869 581.614C328.203 580.307 331.51 578.934 334.79 577.496L335.593 579.328C332.289 580.776 328.957 582.159 325.599 583.476L324.869 581.614ZM304.58 588.666C308.008 587.624 311.413 586.515 314.794 585.34L315.451 587.229C312.045 588.413 308.615 589.53 305.162 590.58L304.58 588.666ZM140.64 587.165C142.344 587.717 144.053 588.253 145.765 588.771L145.186 590.685C143.461 590.163 141.74 589.624 140.023 589.067L140.64 587.165ZM283.801 594.104C287.301 593.334 290.783 592.495 294.244 591.589L294.751 593.524C291.264 594.437 287.756 595.282 284.231 596.058L283.801 594.104ZM156.105 591.681C159.573 592.583 163.056 593.417 166.552 594.182L166.124 596.136C162.603 595.365 159.095 594.525 155.601 593.616L156.105 591.681ZM267.971 597.103C269.74 596.822 271.506 596.523 273.267 596.207L273.62 598.176C271.846 598.494 270.068 598.795 268.285 599.078C266.503 599.362 264.719 599.628 262.934 599.876L262.658 597.895C264.431 597.649 266.202 597.385 267.971 597.103ZM177.088 596.271C180.615 596.898 184.153 597.456 187.699 597.944L187.426 599.926C183.854 599.434 180.291 598.872 176.738 598.24L177.088 596.271ZM241.284 600.015C244.856 599.802 248.426 599.519 251.992 599.165L252.19 601.155C248.597 601.511 245.001 601.797 241.403 602.011L241.284 600.015ZM198.367 599.2C201.931 599.549 205.501 599.828 209.076 600.036L208.959 602.033C205.358 601.823 201.762 601.542 198.172 601.191L198.367 599.2ZM219.81 600.451C223.388 600.519 226.97 600.516 230.551 600.444L230.592 602.443C226.984 602.517 223.377 602.519 219.772 602.45L219.81 600.451Z" fill="#BBBBBB"/>
<circle cx="474" cy="441" r="10" fill="#FCD318"/>
<line x1="484" y1="440.5" x2="545" y2="440.5" stroke="#BBBBBB" stroke-dasharray="7 7"/>
<circle cx="283" cy="592" r="10" fill="#FCD318"/>
<line x1="290.268" y1="599.578" x2="396.935" y2="667.274" stroke="#BBBBBB" stroke-dasharray="7 7"/>
<circle cx="474" cy="213" r="10" fill="#FCD318"/>
<line x1="484" y1="212.5" x2="545" y2="212.5" stroke="#BBBBBB" stroke-dasharray="7 7"/>
<circle cx="298" cy="62" r="10" fill="#FCD318"/>
<line x1="307.73" y1="54.6257" x2="391.866" y2="0.579275" stroke="#BBBBBB" stroke-dasharray="7 7"/>
<path d="M118.205 356H133.655V377H130.205V359.3H121.655V377H118.205V356ZM150.344 375.11C148.824 376.63 146.954 377.39 144.734 377.39C142.514 377.39 140.644 376.63 139.124 375.11C137.584 373.57 136.814 371.7 136.814 369.5C136.814 367.3 137.584 365.43 139.124 363.89C140.644 362.37 142.514 361.61 144.734 361.61C146.954 361.61 148.824 362.37 150.344 363.89C151.884 365.43 152.654 367.3 152.654 369.5C152.654 371.7 151.884 373.57 150.344 375.11ZM140.054 369.5C140.054 370.86 140.504 371.99 141.404 372.89C142.304 373.79 143.414 374.24 144.734 374.24C146.054 374.24 147.164 373.79 148.064 372.89C148.964 371.99 149.414 370.86 149.414 369.5C149.414 368.14 148.964 367.01 148.064 366.11C147.164 365.21 146.054 364.76 144.734 364.76C143.414 364.76 142.304 365.21 141.404 366.11C140.504 367.01 140.054 368.14 140.054 369.5ZM164.41 368.87V362H167.65V377H164.41V371.93C163.23 372.37 161.97 372.59 160.63 372.59C158.73 372.59 157.25 372.13 156.19 371.21C155.13 370.27 154.6 368.92 154.6 367.16V362H157.84V366.86C157.84 368.66 158.91 369.56 161.05 369.56C162.27 369.56 163.39 369.33 164.41 368.87ZM185.923 370.88H173.983C174.223 372 174.763 372.87 175.603 373.49C176.463 374.11 177.523 374.42 178.783 374.42C180.483 374.42 181.773 373.8 182.653 372.56L185.323 374.12C183.863 376.3 181.673 377.39 178.753 377.39C176.333 377.39 174.363 376.65 172.843 375.17C171.343 373.67 170.593 371.78 170.593 369.5C170.593 367.28 171.333 365.41 172.813 363.89C174.273 362.37 176.173 361.61 178.513 361.61C180.693 361.61 182.493 362.38 183.913 363.92C185.333 365.46 186.043 367.33 186.043 369.53C186.043 369.93 186.003 370.38 185.923 370.88ZM173.953 368.24H182.773C182.553 367.06 182.053 366.15 181.273 365.51C180.513 364.87 179.583 364.55 178.483 364.55C177.283 364.55 176.283 364.88 175.483 365.54C174.683 366.2 174.173 367.1 173.953 368.24ZM200.894 362H204.194V377H201.044V367.13L196.724 374H196.334L192.044 367.16V377H188.894V362H192.194L196.544 368.93L200.894 362ZM214.207 372.92L218.047 362H221.497L215.737 377.48C215.037 379.38 214.057 380.8 212.797 381.74C211.537 382.68 210.077 383.1 208.417 383V379.97C210.337 380.09 211.667 379.13 212.407 377.09L212.497 376.88L206.197 362H209.647L214.207 372.92ZM234.203 371.51L241.883 362H244.373V377H241.193V367.46L233.513 377H231.023V362H234.203V371.51ZM260.132 362H263.432V377H260.282V367.13L255.962 374H255.572L251.282 367.16V377H248.132V362H251.432L255.782 368.93L260.132 362ZM281.665 370.88H269.725C269.965 372 270.505 372.87 271.345 373.49C272.205 374.11 273.265 374.42 274.525 374.42C276.225 374.42 277.515 373.8 278.395 372.56L281.065 374.12C279.605 376.3 277.415 377.39 274.495 377.39C272.075 377.39 270.105 376.65 268.585 375.17C267.085 373.67 266.335 371.78 266.335 369.5C266.335 367.28 267.075 365.41 268.555 363.89C270.015 362.37 271.915 361.61 274.255 361.61C276.435 361.61 278.235 362.38 279.655 363.92C281.075 365.46 281.785 367.33 281.785 369.53C281.785 369.93 281.745 370.38 281.665 370.88ZM269.695 368.24H278.515C278.295 367.06 277.795 366.15 277.015 365.51C276.255 364.87 275.325 364.55 274.225 364.55C273.025 364.55 272.025 364.88 271.225 365.54C270.425 366.2 269.915 367.1 269.695 368.24ZM294.746 367.97V362H297.986V377H294.746V371.03H287.876V377H284.636V362H287.876V367.97H294.746ZM311.855 367.97V362H315.095V377H311.855V371.03H304.985V377H301.745V362H304.985V367.97H311.855ZM331.545 375.11C330.025 376.63 328.155 377.39 325.935 377.39C323.715 377.39 321.845 376.63 320.325 375.11C318.785 373.57 318.015 371.7 318.015 369.5C318.015 367.3 318.785 365.43 320.325 363.89C321.845 362.37 323.715 361.61 325.935 361.61C328.155 361.61 330.025 362.37 331.545 363.89C333.085 365.43 333.855 367.3 333.855 369.5C333.855 371.7 333.085 373.57 331.545 375.11ZM321.255 369.5C321.255 370.86 321.705 371.99 322.605 372.89C323.505 373.79 324.615 374.24 325.935 374.24C327.255 374.24 328.365 373.79 329.265 372.89C330.165 371.99 330.615 370.86 330.615 369.5C330.615 368.14 330.165 367.01 329.265 366.11C328.365 365.21 327.255 364.76 325.935 364.76C324.615 364.76 323.505 365.21 322.605 366.11C321.705 367.01 321.255 368.14 321.255 369.5ZM211.353 398H214.653V413H211.503V403.13L207.183 410H206.793L202.503 403.16V413H199.353V398H202.653L207.003 404.93L211.353 398ZM221.636 403.1H224.936C226.556 403.1 227.866 403.56 228.866 404.48C229.886 405.38 230.396 406.57 230.396 408.05C230.396 409.51 229.886 410.7 228.866 411.62C227.866 412.54 226.556 413 224.936 413H218.396V398H221.636V403.1ZM232.196 413V398H235.436V413H232.196ZM221.636 410.09H224.966C225.606 410.09 226.136 409.9 226.556 409.52C226.996 409.14 227.216 408.65 227.216 408.05C227.216 407.45 227.006 406.96 226.586 406.58C226.166 406.2 225.626 406.01 224.966 406.01H221.636V410.09ZM246.61 406.4H243.16C243.16 405.6 243.34 404.85 243.7 404.15C244.06 403.43 244.5 402.82 245.02 402.32C245.54 401.8 246.06 401.31 246.58 400.85C247.1 400.37 247.54 399.85 247.9 399.29C248.26 398.73 248.44 398.16 248.44 397.58C248.44 396.76 248.15 396.12 247.57 395.66C246.99 395.2 246.21 394.97 245.23 394.97C244.29 394.97 243.48 395.21 242.8 395.69C242.12 396.17 241.63 396.85 241.33 397.73L238.36 396.05C238.9 394.65 239.79 393.56 241.03 392.78C242.29 392 243.72 391.61 245.32 391.61C247.12 391.61 248.66 392.12 249.94 393.14C251.24 394.16 251.89 395.57 251.89 397.37C251.89 398.19 251.71 398.97 251.35 399.71C250.99 400.45 250.55 401.08 250.03 401.6C249.51 402.12 248.99 402.63 248.47 403.13C247.95 403.61 247.51 404.13 247.15 404.69C246.79 405.25 246.61 405.82 246.61 406.4ZM244.9 408.86C245.52 408.86 246.05 409.08 246.49 409.52C246.93 409.96 247.15 410.49 247.15 411.11C247.15 411.73 246.93 412.26 246.49 412.7C246.05 413.14 245.52 413.36 244.9 413.36C244.28 413.36 243.75 413.14 243.31 412.7C242.87 412.26 242.65 411.73 242.65 411.11C242.65 410.49 242.86 409.96 243.28 409.52C243.72 409.08 244.26 408.86 244.9 408.86Z" fill="#17365E"/>
<g clip-path="url(#clip0_4_94)">
<path d="M225.313 291C227.413 291 228.463 289.5 228.775 287.081C229.025 283.744 230.013 281.987 234.069 279.206C238.275 276.237 240.625 272.394 240.625 266.794C240.625 258.513 234.875 252.875 226.488 252.875C220.113 252.875 215.288 255.95 213.363 260.937C212.779 262.3 212.485 263.768 212.5 265.25C212.5 267.706 213.769 269.25 215.906 269.25C217.606 269.25 218.75 268.331 219.431 266.062C220.419 262.363 222.713 260.344 226.144 260.344C229.956 260.344 232.581 263.131 232.581 267.119C232.581 270.637 231.281 272.65 227.444 275.4C223.575 278.106 221.656 281.113 221.656 285.65V286.344C221.656 289.019 222.956 291 225.313 291Z" fill="#889EBB"/>
<path d="M239.206 246.706L233.45 240.806L237.919 236.444L241.806 240.425L247.369 240.356C249.776 240.328 252.166 240.781 254.396 241.689C256.626 242.598 258.652 243.943 260.354 245.645C262.057 247.348 263.402 249.374 264.311 251.604C265.219 253.834 265.672 256.223 265.644 258.631L265.581 264.194L269.556 268.081C271.278 269.764 272.646 271.773 273.58 273.992C274.514 276.21 274.995 278.593 274.995 281C274.995 283.407 274.514 285.79 273.58 288.008C272.646 290.227 271.278 292.236 269.556 293.919L265.575 297.806L265.644 303.369C265.672 305.777 265.219 308.166 264.311 310.396C263.402 312.626 262.057 314.652 260.354 316.355C258.652 318.057 256.626 319.402 254.396 320.311C252.166 321.219 249.776 321.672 247.369 321.644L241.806 321.581L237.919 325.556C236.236 327.278 234.227 328.646 232.008 329.58C229.79 330.514 227.407 330.995 225 330.995C222.593 330.995 220.21 330.514 217.991 329.58C215.773 328.646 213.763 327.278 212.081 325.556L208.194 321.575L202.631 321.644C200.223 321.672 197.834 321.219 195.604 320.311C193.374 319.402 191.348 318.057 189.645 316.355C187.943 314.652 186.597 312.626 185.689 310.396C184.781 308.166 184.328 305.777 184.356 303.369L184.419 297.806L180.444 293.919C178.722 292.236 177.354 290.227 176.42 288.008C175.486 285.79 175.005 283.407 175.005 281C175.005 278.593 175.486 276.21 176.42 273.992C177.354 271.773 178.722 269.764 180.444 268.081L184.425 264.194L184.356 258.631C184.328 256.223 184.781 253.834 185.689 251.604C186.597 249.374 187.943 247.348 189.645 245.645C191.348 243.943 193.374 242.598 195.604 241.689C197.834 240.781 200.223 240.328 202.631 240.356L208.194 240.419L212.081 236.444C213.763 234.722 215.773 233.354 217.991 232.42C220.21 231.486 222.593 231.005 225 231.005C227.407 231.005 229.79 231.486 232.008 232.42C234.227 233.354 236.236 234.722 237.919 236.444L233.45 240.806C232.35 239.68 231.035 238.785 229.584 238.174C228.133 237.563 226.574 237.248 225 237.248C223.425 237.248 221.867 237.563 220.416 238.174C218.964 238.785 217.65 239.68 216.55 240.806L210.8 246.706L202.55 246.606C200.976 246.589 199.414 246.886 197.957 247.48C196.5 248.075 195.176 248.954 194.063 250.067C192.95 251.181 192.071 252.505 191.478 253.963C190.884 255.421 190.588 256.982 190.606 258.556L190.706 266.794L184.806 272.55C183.68 273.65 182.785 274.965 182.174 276.416C181.563 277.867 181.248 279.425 181.248 281C181.248 282.575 181.563 284.133 182.174 285.584C182.785 287.035 183.68 288.35 184.806 289.45L190.706 295.2L190.606 303.45C190.589 305.024 190.886 306.585 191.48 308.043C192.074 309.5 192.954 310.824 194.067 311.937C195.181 313.05 196.505 313.929 197.963 314.522C199.421 315.116 200.982 315.412 202.556 315.394L210.794 315.294L216.55 321.194C217.65 322.32 218.964 323.215 220.416 323.826C221.867 324.437 223.425 324.752 225 324.752C226.574 324.752 228.133 324.437 229.584 323.826C231.035 323.215 232.35 322.32 233.45 321.194L239.2 315.294L247.45 315.394C249.024 315.411 250.585 315.114 252.043 314.52C253.5 313.925 254.824 313.046 255.937 311.932C257.049 310.819 257.928 309.495 258.522 308.037C259.116 306.579 259.412 305.018 259.394 303.444L259.294 295.206L265.194 289.45C266.32 288.35 267.215 287.035 267.826 285.584C268.437 284.133 268.752 282.575 268.752 281C268.752 279.425 268.437 277.867 267.826 276.416C267.215 274.965 266.32 273.65 265.194 272.55L259.294 266.8L259.394 258.55C259.411 256.976 259.114 255.415 258.52 253.957C257.925 252.5 257.046 251.176 255.932 250.063C254.819 248.95 253.495 248.071 252.037 247.478C250.579 246.884 249.017 246.588 247.444 246.606L239.206 246.706Z" fill="#889EBB"/>
<path d="M218.756 299.75C218.756 298.092 219.415 296.503 220.587 295.331C221.759 294.158 223.349 293.5 225.006 293.5C226.664 293.5 228.254 294.158 229.426 295.331C230.598 296.503 231.256 298.092 231.256 299.75C231.256 301.408 230.598 302.997 229.426 304.169C228.254 305.342 226.664 306 225.006 306C223.349 306 221.759 305.342 220.587 304.169C219.415 302.997 218.756 301.408 218.756 299.75Z" fill="#889EBB"/>
</g>
<defs>
<clipPath id="clip0_4_94">
<rect width="100" height="100" fill="white" transform="translate(175 231)"/>
</clipPath>
</defs>
</svg>
