<svg width="300" height="300" viewBox="0 0 300 300" fill="none" xmlns="http://www.w3.org/2000/svg">
<circle cx="150" cy="150" r="150" fill="#FCD318" fill-opacity="0.5"/>
<circle cx="150" cy="150" r="125" fill="#EFF2F6"/>
<path d="M64.1644 182.2H76.5244V199H73.7644V184.84H66.9244V199H64.1644V182.2ZM89.8749 197.488C88.6589 198.704 87.1629 199.312 85.3869 199.312C83.6109 199.312 82.1149 198.704 80.8989 197.488C79.6669 196.256 79.0509 194.76 79.0509 193C79.0509 191.24 79.6669 189.744 80.8989 188.512C82.1149 187.296 83.6109 186.688 85.3869 186.688C87.1629 186.688 88.6589 187.296 89.8749 188.512C91.1069 189.744 91.7229 191.24 91.7229 193C91.7229 194.76 91.1069 196.256 89.8749 197.488ZM81.6429 193C81.6429 194.088 82.0029 194.992 82.7229 195.712C83.4429 196.432 84.3309 196.792 85.3869 196.792C86.4429 196.792 87.3309 196.432 88.0509 195.712C88.7709 194.992 89.1309 194.088 89.1309 193C89.1309 191.912 88.7709 191.008 88.0509 190.288C87.3309 189.568 86.4429 189.208 85.3869 189.208C84.3309 189.208 83.4429 189.568 82.7229 190.288C82.0029 191.008 81.6429 191.912 81.6429 193ZM101.128 192.496V187H103.72V199H101.128V194.944C100.184 195.296 99.1763 195.472 98.1043 195.472C96.5843 195.472 95.4003 195.104 94.5523 194.368C93.7043 193.616 93.2803 192.536 93.2803 191.128V187H95.8723V190.888C95.8723 192.328 96.7283 193.048 98.4403 193.048C99.4163 193.048 100.312 192.864 101.128 192.496ZM118.338 194.104H108.786C108.978 195 109.41 195.696 110.082 196.192C110.77 196.688 111.618 196.936 112.626 196.936C113.986 196.936 115.018 196.44 115.722 195.448L117.858 196.696C116.69 198.44 114.938 199.312 112.602 199.312C110.666 199.312 109.09 198.72 107.874 197.536C106.674 196.336 106.074 194.824 106.074 193C106.074 191.224 106.666 189.728 107.85 188.512C109.018 187.296 110.538 186.688 112.41 186.688C114.154 186.688 115.594 187.304 116.73 188.536C117.866 189.768 118.434 191.264 118.434 193.024C118.434 193.344 118.402 193.704 118.338 194.104ZM108.762 191.992H115.818C115.642 191.048 115.242 190.32 114.618 189.808C114.01 189.296 113.266 189.04 112.386 189.04C111.426 189.04 110.626 189.304 109.986 189.832C109.346 190.36 108.938 191.08 108.762 191.992ZM130.315 187H132.955V199H130.435V191.104L126.979 196.6H126.667L123.235 191.128V199H120.715V187H123.355L126.835 192.544L130.315 187ZM140.966 195.736L144.038 187H146.798L142.19 199.384C141.63 200.904 140.846 202.04 139.838 202.792C138.83 203.544 137.662 203.88 136.334 203.8V201.376C137.87 201.472 138.934 200.704 139.526 199.072L139.598 198.904L134.558 187H137.318L140.966 195.736ZM156.962 194.608L163.106 187H165.098V199H162.554V191.368L156.41 199H154.418V187H156.962V194.608ZM177.706 187H180.346V199H177.826V191.104L174.37 196.6H174.058L170.626 191.128V199H168.106V187H170.746L174.226 192.544L177.706 187ZM194.932 194.104H185.38C185.572 195 186.004 195.696 186.676 196.192C187.364 196.688 188.212 196.936 189.22 196.936C190.58 196.936 191.612 196.44 192.316 195.448L194.452 196.696C193.284 198.44 191.532 199.312 189.196 199.312C187.26 199.312 185.684 198.72 184.468 197.536C183.268 196.336 182.668 194.824 182.668 193C182.668 191.224 183.26 189.728 184.444 188.512C185.612 187.296 187.132 186.688 189.004 186.688C190.748 186.688 192.188 187.304 193.324 188.536C194.46 189.768 195.028 191.264 195.028 193.024C195.028 193.344 194.996 193.704 194.932 194.104ZM185.356 191.992H192.412C192.236 191.048 191.836 190.32 191.212 189.808C190.604 189.296 189.86 189.04 188.98 189.04C188.02 189.04 187.22 189.304 186.58 189.832C185.94 190.36 185.532 191.08 185.356 191.992ZM205.397 191.776V187H207.989V199H205.397V194.224H199.901V199H197.309V187H199.901V191.776H205.397ZM219.084 191.776V187H221.676V199H219.084V194.224H213.588V199H210.996V187H213.588V191.776H219.084ZM234.836 197.488C233.62 198.704 232.124 199.312 230.348 199.312C228.572 199.312 227.076 198.704 225.86 197.488C224.628 196.256 224.012 194.76 224.012 193C224.012 191.24 224.628 189.744 225.86 188.512C227.076 187.296 228.572 186.688 230.348 186.688C232.124 186.688 233.62 187.296 234.836 188.512C236.068 189.744 236.684 191.24 236.684 193C236.684 194.76 236.068 196.256 234.836 197.488ZM226.604 193C226.604 194.088 226.964 194.992 227.684 195.712C228.404 196.432 229.292 196.792 230.348 196.792C231.404 196.792 232.292 196.432 233.012 195.712C233.732 194.992 234.092 194.088 234.092 193C234.092 191.912 233.732 191.008 233.012 190.288C232.292 189.568 231.404 189.208 230.348 189.208C229.292 189.208 228.404 189.568 227.684 190.288C226.964 191.008 226.604 191.912 226.604 193ZM138.682 216H141.322V228H138.802V220.104L135.346 225.6H135.034L131.602 220.128V228H129.082V216H131.722L135.202 221.544L138.682 216ZM146.909 220.08H149.549C150.845 220.08 151.893 220.448 152.693 221.184C153.509 221.904 153.917 222.856 153.917 224.04C153.917 225.208 153.509 226.16 152.693 226.896C151.893 227.632 150.845 228 149.549 228H144.317V216H146.909V220.08ZM155.357 228V216H157.949V228H155.357ZM146.909 225.672H149.573C150.085 225.672 150.509 225.52 150.845 225.216C151.197 224.912 151.373 224.52 151.373 224.04C151.373 223.56 151.205 223.168 150.869 222.864C150.533 222.56 150.101 222.408 149.573 222.408H146.909V225.672ZM166.888 222.72H164.128C164.128 222.08 164.272 221.48 164.56 220.92C164.848 220.344 165.2 219.856 165.616 219.456C166.032 219.04 166.448 218.648 166.864 218.28C167.28 217.896 167.632 217.48 167.92 217.032C168.208 216.584 168.352 216.128 168.352 215.664C168.352 215.008 168.12 214.496 167.656 214.128C167.192 213.76 166.568 213.576 165.784 213.576C165.032 213.576 164.384 213.768 163.84 214.152C163.296 214.536 162.904 215.08 162.664 215.784L160.288 214.44C160.72 213.32 161.432 212.448 162.424 211.824C163.432 211.2 164.576 210.888 165.856 210.888C167.296 210.888 168.528 211.296 169.552 212.112C170.592 212.928 171.112 214.056 171.112 215.496C171.112 216.152 170.968 216.776 170.68 217.368C170.392 217.96 170.04 218.464 169.624 218.88C169.208 219.296 168.792 219.704 168.376 220.104C167.96 220.488 167.608 220.904 167.32 221.352C167.032 221.8 166.888 222.256 166.888 222.72ZM165.52 224.688C166.016 224.688 166.44 224.864 166.792 225.216C167.144 225.568 167.32 225.992 167.32 226.488C167.32 226.984 167.144 227.408 166.792 227.76C166.44 228.112 166.016 228.288 165.52 228.288C165.024 228.288 164.6 228.112 164.248 227.76C163.896 227.408 163.72 226.984 163.72 226.488C163.72 225.992 163.888 225.568 164.224 225.216C164.576 224.864 165.008 224.688 165.52 224.688Z" fill="#17365E"/>
<g clip-path="url(#clip0_119_982)">
<path d="M150.313 124C152.413 124 153.463 122.5 153.775 120.081C154.025 116.744 155.013 114.987 159.069 112.206C163.275 109.237 165.625 105.394 165.625 99.7938C165.625 91.5125 159.875 85.875 151.488 85.875C145.113 85.875 140.288 88.95 138.363 93.9375C137.779 95.2997 137.485 96.7683 137.5 98.25C137.5 100.706 138.769 102.25 140.906 102.25C142.606 102.25 143.75 101.331 144.431 99.0625C145.419 95.3625 147.713 93.3438 151.144 93.3438C154.956 93.3438 157.581 96.1312 157.581 100.119C157.581 103.637 156.281 105.65 152.444 108.4C148.575 111.106 146.656 114.113 146.656 118.65V119.344C146.656 122.019 147.956 124 150.313 124Z" fill="#889EBB"/>
<path d="M164.206 79.7062L158.45 73.8062L162.919 69.4437L166.806 73.425L172.369 73.3562C174.776 73.3277 177.166 73.781 179.396 74.6893C181.626 75.5976 183.652 76.9426 185.354 78.6453C187.057 80.348 188.402 82.374 189.311 84.6041C190.219 86.8342 190.672 89.2234 190.644 91.6312L190.581 97.1937L194.556 101.081C196.278 102.764 197.646 104.773 198.58 106.992C199.514 109.21 199.995 111.593 199.995 114C199.995 116.407 199.514 118.79 198.58 121.008C197.646 123.227 196.278 125.236 194.556 126.919L190.575 130.806L190.644 136.369C190.672 138.777 190.219 141.166 189.311 143.396C188.402 145.626 187.057 147.652 185.354 149.355C183.652 151.057 181.626 152.402 179.396 153.311C177.166 154.219 174.776 154.672 172.369 154.644L166.806 154.581L162.919 158.556C161.236 160.278 159.227 161.646 157.008 162.58C154.79 163.514 152.407 163.995 150 163.995C147.593 163.995 145.21 163.514 142.991 162.58C140.773 161.646 138.763 160.278 137.081 158.556L133.194 154.575L127.631 154.644C125.223 154.672 122.834 154.219 120.604 153.311C118.374 152.402 116.348 151.057 114.645 149.355C112.943 147.652 111.597 145.626 110.689 143.396C109.781 141.166 109.328 138.777 109.356 136.369L109.419 130.806L105.444 126.919C103.722 125.236 102.354 123.227 101.42 121.008C100.486 118.79 100.005 116.407 100.005 114C100.005 111.593 100.486 109.21 101.42 106.992C102.354 104.773 103.722 102.764 105.444 101.081L109.425 97.1937L109.356 91.6312C109.328 89.2234 109.781 86.8342 110.689 84.6041C111.597 82.374 112.943 80.348 114.645 78.6453C116.348 76.9426 118.374 75.5976 120.604 74.6893C122.834 73.781 125.223 73.3277 127.631 73.3562L133.194 73.4187L137.081 69.4437C138.763 67.7221 140.773 66.3541 142.991 65.4201C145.21 64.4861 147.593 64.005 150 64.005C152.407 64.005 154.79 64.4861 157.008 65.4201C159.227 66.3541 161.236 67.7221 162.919 69.4437L158.45 73.8062C157.35 72.6799 156.035 71.7849 154.584 71.1738C153.133 70.5628 151.574 70.248 150 70.248C148.425 70.248 146.867 70.5628 145.416 71.1738C143.964 71.7849 142.65 72.6799 141.55 73.8062L135.8 79.7062L127.55 79.6062C125.976 79.5886 124.414 79.8858 122.957 80.4801C121.5 81.0745 120.176 81.9542 119.063 83.0675C117.95 84.1807 117.071 85.5052 116.478 86.9629C115.884 88.4207 115.588 89.9823 115.606 91.5562L115.706 99.7937L109.806 105.55C108.68 106.65 107.785 107.965 107.174 109.416C106.563 110.867 106.248 112.425 106.248 114C106.248 115.575 106.563 117.133 107.174 118.584C107.785 120.035 108.68 121.35 109.806 122.45L115.706 128.2L115.606 136.45C115.589 138.024 115.886 139.585 116.48 141.043C117.074 142.5 117.954 143.824 119.067 144.937C120.181 146.05 121.505 146.929 122.963 147.522C124.421 148.116 125.982 148.412 127.556 148.394L135.794 148.294L141.55 154.194C142.65 155.32 143.964 156.215 145.416 156.826C146.867 157.437 148.425 157.752 150 157.752C151.574 157.752 153.133 157.437 154.584 156.826C156.035 156.215 157.35 155.32 158.45 154.194L164.2 148.294L172.45 148.394C174.024 148.411 175.585 148.114 177.043 147.52C178.5 146.925 179.824 146.046 180.937 144.932C182.049 143.819 182.928 142.495 183.522 141.037C184.116 139.579 184.412 138.018 184.394 136.444L184.294 128.206L190.194 122.45C191.32 121.35 192.215 120.035 192.826 118.584C193.437 117.133 193.752 115.575 193.752 114C193.752 112.425 193.437 110.867 192.826 109.416C192.215 107.965 191.32 106.65 190.194 105.55L184.294 99.8L184.394 91.55C184.411 89.9761 184.114 88.4146 183.52 86.9571C182.925 85.4997 182.046 84.1757 180.932 83.063C179.819 81.9503 178.495 81.0714 177.037 80.4777C175.579 79.8841 174.017 79.5878 172.444 79.6062L164.206 79.7062Z" fill="#889EBB"/>
<path d="M143.756 132.75C143.756 131.092 144.415 129.503 145.587 128.331C146.759 127.158 148.349 126.5 150.006 126.5C151.664 126.5 153.254 127.158 154.426 128.331C155.598 129.503 156.256 131.092 156.256 132.75C156.256 134.408 155.598 135.997 154.426 137.169C153.254 138.342 151.664 139 150.006 139C148.349 139 146.759 138.342 145.587 137.169C144.415 135.997 143.756 134.408 143.756 132.75Z" fill="#889EBB"/>
</g>
<defs>
<clipPath id="clip0_119_982">
<rect width="100" height="100" fill="white" transform="translate(100 64)"/>
</clipPath>
</defs>
</svg>
